<svg width="176" height="49" viewBox="0 0 176 49" fill="none" xmlns="http://www.w3.org/2000/svg">
<path d="M5.17526 26.0002L9.13403 30.0002L19.0309 20.0002" stroke="#2ECD6F" stroke-width="2" stroke-linecap="round" stroke-linejoin="round"/>
<path d="M38.4254 19V17.64H41.3454V8.24H39.0254V7.18C39.612 7.07333 40.1187 6.94667 40.5454 6.8C40.9854 6.64 41.3787 6.45333 41.7254 6.24H42.9854V17.64H45.6254V19H38.4254ZM49.0068 14.16H53.0068V10.46C53.0068 10.1133 53.0201 9.7 53.0468 9.22C53.0734 8.74 53.0934 8.33333 53.1068 8H53.0268C52.8668 8.30667 52.7001 8.60667 52.5268 8.9C52.3534 9.19333 52.1734 9.49333 51.9868 9.8L49.0068 14.16ZM53.0068 19V15.48H47.2668V14.4L52.7268 6.24H54.5668V14.16H56.3068V15.48H54.5668V19H53.0068ZM57.8282 14.62V13.36H62.4282V14.62H57.8282ZM68.3191 19.24C67.1058 19.24 66.1325 18.8 65.3991 17.92C64.6658 17.0267 64.2991 15.7733 64.2991 14.16C64.2991 13.1067 64.4925 12.2 64.8791 11.44C65.2791 10.6667 65.7991 10.0733 66.4391 9.66C67.0925 9.24667 67.7858 9.04 68.5191 9.04C69.0791 9.04 69.5658 9.14 69.9791 9.34C70.3925 9.54 70.8125 9.81333 71.2391 10.16L71.1591 8.5V4.76H72.8191V19H71.4591L71.3191 17.86H71.2591C70.8858 18.2333 70.4458 18.56 69.9391 18.84C69.4325 19.1067 68.8925 19.24 68.3191 19.24ZM68.6791 17.86C69.5325 17.86 70.3591 17.4133 71.1591 16.52V11.44C70.7458 11.0667 70.3458 10.8067 69.9591 10.66C69.5858 10.5 69.1991 10.42 68.7991 10.42C68.2791 10.42 67.8058 10.58 67.3791 10.9C66.9658 11.2067 66.6325 11.64 66.3791 12.2C66.1258 12.7467 65.9991 13.3933 65.9991 14.14C65.9991 15.3 66.2325 16.2133 66.6991 16.88C67.1658 17.5333 67.8258 17.86 68.6791 17.86ZM78.4729 19.24C77.6595 19.24 76.9795 19 76.4329 18.52C75.8995 18.0267 75.6329 17.3467 75.6329 16.48C75.6329 15.4133 76.1062 14.6 77.0529 14.04C78.0129 13.4667 79.5262 13.0667 81.5929 12.84C81.5929 12.4267 81.5329 12.0333 81.4129 11.66C81.3062 11.2867 81.1062 10.9867 80.8129 10.76C80.5329 10.52 80.1262 10.4 79.5929 10.4C79.0329 10.4 78.5062 10.5067 78.0129 10.72C77.5195 10.9333 77.0795 11.1733 76.6929 11.44L76.0529 10.3C76.5062 10.0067 77.0595 9.72667 77.7129 9.46C78.3795 9.18 79.0995 9.04 79.8729 9.04C81.0595 9.04 81.9195 9.40667 82.4529 10.14C82.9862 10.86 83.2529 11.8267 83.2529 13.04V19H81.8929L81.7529 17.84H81.6929C81.2395 18.2133 80.7395 18.54 80.1929 18.82C79.6595 19.1 79.0862 19.24 78.4729 19.24ZM78.9529 17.92C79.4195 17.92 79.8595 17.8067 80.2729 17.58C80.6862 17.3533 81.1262 17.0333 81.5929 16.62V13.92C79.9795 14.12 78.8462 14.42 78.1929 14.82C77.5529 15.22 77.2329 15.7333 77.2329 16.36C77.2329 16.9067 77.3995 17.3067 77.7329 17.56C78.0662 17.8 78.4729 17.92 78.9529 17.92ZM86.611 23.18C86.3977 23.18 86.191 23.16 85.991 23.12C85.8043 23.08 85.631 23.0333 85.471 22.98L85.791 21.68C85.8977 21.7067 86.0177 21.7333 86.151 21.76C86.2843 21.8 86.411 21.82 86.531 21.82C87.0777 21.82 87.531 21.62 87.891 21.22C88.251 20.8333 88.531 20.34 88.731 19.74L88.951 19.02L85.051 9.28H86.751L88.731 14.66C88.8777 15.0733 89.031 15.52 89.191 16C89.3643 16.48 89.5243 16.9467 89.671 17.4H89.751C89.8977 16.96 90.0377 16.5 90.171 16.02C90.3043 15.54 90.4377 15.0867 90.571 14.66L92.311 9.28H93.911L90.251 19.8C90.0243 20.44 89.751 21.0133 89.431 21.52C89.1243 22.0267 88.7377 22.4267 88.271 22.72C87.8177 23.0267 87.2643 23.18 86.611 23.18ZM100.231 19V5.88H107.791V7.28H101.891V11.72H106.891V13.12H101.891V19H100.231ZM109.703 19V9.28H111.063L111.203 11.04H111.263C111.596 10.4267 112.003 9.94 112.483 9.58C112.963 9.22 113.476 9.04 114.023 9.04C114.41 9.04 114.756 9.10667 115.063 9.24L114.743 10.68C114.583 10.6267 114.436 10.5867 114.303 10.56C114.17 10.5333 114.003 10.52 113.803 10.52C113.39 10.52 112.956 10.6867 112.503 11.02C112.063 11.3533 111.676 11.9333 111.343 12.76V19H109.703ZM120.521 19.24C119.655 19.24 118.868 19.04 118.161 18.64C117.455 18.2267 116.895 17.64 116.481 16.88C116.068 16.12 115.861 15.2133 115.861 14.16C115.861 13.0933 116.068 12.18 116.481 11.42C116.908 10.66 117.455 10.0733 118.121 9.66C118.788 9.24667 119.488 9.04 120.221 9.04C121.461 9.04 122.415 9.45333 123.081 10.28C123.761 11.1067 124.101 12.2133 124.101 13.6C124.101 13.7733 124.095 13.9467 124.081 14.12C124.081 14.28 124.068 14.42 124.041 14.54H117.481C117.548 15.5667 117.868 16.3867 118.441 17C119.028 17.6133 119.788 17.92 120.721 17.92C121.188 17.92 121.615 17.8533 122.001 17.72C122.401 17.5733 122.781 17.3867 123.141 17.16L123.721 18.24C123.308 18.5067 122.835 18.74 122.301 18.94C121.781 19.14 121.188 19.24 120.521 19.24ZM117.461 13.36H122.661C122.661 12.3733 122.448 11.6267 122.021 11.12C121.608 10.6 121.021 10.34 120.261 10.34C119.581 10.34 118.968 10.6067 118.421 11.14C117.888 11.66 117.568 12.4 117.461 13.36ZM130.583 19.24C129.717 19.24 128.93 19.04 128.223 18.64C127.517 18.2267 126.957 17.64 126.543 16.88C126.13 16.12 125.923 15.2133 125.923 14.16C125.923 13.0933 126.13 12.18 126.543 11.42C126.97 10.66 127.517 10.0733 128.183 9.66C128.85 9.24667 129.55 9.04 130.283 9.04C131.523 9.04 132.477 9.45333 133.143 10.28C133.823 11.1067 134.163 12.2133 134.163 13.6C134.163 13.7733 134.157 13.9467 134.143 14.12C134.143 14.28 134.13 14.42 134.103 14.54H127.543C127.61 15.5667 127.93 16.3867 128.503 17C129.09 17.6133 129.85 17.92 130.783 17.92C131.25 17.92 131.677 17.8533 132.063 17.72C132.463 17.5733 132.843 17.3867 133.203 17.16L133.783 18.24C133.37 18.5067 132.897 18.74 132.363 18.94C131.843 19.14 131.25 19.24 130.583 19.24ZM127.523 13.36H132.723C132.723 12.3733 132.51 11.6267 132.083 11.12C131.67 10.6 131.083 10.34 130.323 10.34C129.643 10.34 129.03 10.6067 128.483 11.14C127.95 11.66 127.63 12.4 127.523 13.36ZM41.3654 44V32.28H37.4054V30.88H47.0054V32.28H43.0454V44H41.3654ZM48.4301 44V34.28H49.7901L49.9301 36.04H49.9901C50.3234 35.4267 50.7301 34.94 51.2101 34.58C51.6901 34.22 52.2034 34.04 52.7501 34.04C53.1367 34.04 53.4834 34.1067 53.7901 34.24L53.4701 35.68C53.3101 35.6267 53.1634 35.5867 53.0301 35.56C52.8967 35.5333 52.7301 35.52 52.5301 35.52C52.1167 35.52 51.6834 35.6867 51.2301 36.02C50.7901 36.3533 50.4034 36.9333 50.0701 37.76V44H48.4301ZM55.5036 44V34.28H57.1436V44H55.5036ZM56.3436 32.28C56.0236 32.28 55.757 32.1867 55.5436 32C55.3436 31.8 55.2436 31.5333 55.2436 31.2C55.2436 30.88 55.3436 30.62 55.5436 30.42C55.757 30.22 56.0236 30.12 56.3436 30.12C56.6636 30.12 56.9236 30.22 57.1236 30.42C57.337 30.62 57.4436 30.88 57.4436 31.2C57.4436 31.5333 57.337 31.8 57.1236 32C56.9236 32.1867 56.6636 32.28 56.3436 32.28ZM62.8055 44.24C61.9922 44.24 61.3122 44 60.7655 43.52C60.2322 43.0267 59.9655 42.3467 59.9655 41.48C59.9655 40.4133 60.4389 39.6 61.3855 39.04C62.3455 38.4667 63.8589 38.0667 65.9255 37.84C65.9255 37.4267 65.8655 37.0333 65.7455 36.66C65.6389 36.2867 65.4389 35.9867 65.1455 35.76C64.8655 35.52 64.4589 35.4 63.9255 35.4C63.3655 35.4 62.8389 35.5067 62.3455 35.72C61.8522 35.9333 61.4122 36.1733 61.0255 36.44L60.3855 35.3C60.8389 35.0067 61.3922 34.7267 62.0455 34.46C62.7122 34.18 63.4322 34.04 64.2055 34.04C65.3922 34.04 66.2522 34.4067 66.7855 35.14C67.3189 35.86 67.5855 36.8267 67.5855 38.04V44H66.2255L66.0855 42.84H66.0255C65.5722 43.2133 65.0722 43.54 64.5255 43.82C63.9922 44.1 63.4189 44.24 62.8055 44.24ZM63.2855 42.92C63.7522 42.92 64.1922 42.8067 64.6055 42.58C65.0189 42.3533 65.4589 42.0333 65.9255 41.62V38.92C64.3122 39.12 63.1789 39.42 62.5255 39.82C61.8855 40.22 61.5655 40.7333 61.5655 41.36C61.5655 41.9067 61.7322 42.3067 62.0655 42.56C62.3989 42.8 62.8055 42.92 63.2855 42.92ZM72.5237 44.24C71.9103 44.24 71.4637 44.0533 71.1837 43.68C70.917 43.2933 70.7837 42.7467 70.7837 42.04V29.76H72.4237V42.16C72.4237 42.4133 72.4703 42.6 72.5637 42.72C72.657 42.8267 72.7637 42.88 72.8837 42.88C72.937 42.88 72.9837 42.88 73.0237 42.88C73.077 42.8667 73.1503 42.8533 73.2437 42.84L73.4637 44.08C73.357 44.1333 73.2303 44.1733 73.0837 44.2C72.937 44.2267 72.7503 44.24 72.5237 44.24Z" fill="white"/>
</svg>
