<svg width="147" height="49" viewBox="0 0 147 49" fill="none" xmlns="http://www.w3.org/2000/svg">
<path d="M5.17526 26L9.13403 30L19.0309 20" stroke="#2ECD6F" stroke-width="2" stroke-linecap="round" stroke-linejoin="round"/>
<path d="M37.6454 19V18.02C38.9254 16.74 40.012 15.62 40.9054 14.66C41.7987 13.6867 42.4787 12.8133 42.9454 12.04C43.412 11.2533 43.6454 10.52 43.6454 9.84C43.6454 9.10667 43.4454 8.50667 43.0454 8.04C42.6454 7.57333 42.0387 7.34 41.2254 7.34C40.692 7.34 40.1987 7.49333 39.7454 7.8C39.292 8.09333 38.8787 8.45333 38.5054 8.88L37.5654 7.94C38.0987 7.35333 38.6654 6.88667 39.2654 6.54C39.8787 6.18 40.5987 6 41.4254 6C42.612 6 43.5454 6.34667 44.2254 7.04C44.9054 7.72 45.2454 8.62667 45.2454 9.76C45.2454 10.56 45.0187 11.3733 44.5654 12.2C44.1254 13.0133 43.512 13.8733 42.7254 14.78C41.952 15.6733 41.0587 16.6467 40.0454 17.7C40.392 17.6733 40.752 17.6467 41.1254 17.62C41.4987 17.5933 41.852 17.58 42.1854 17.58H45.8854V19H37.6454ZM49.0068 14.16H53.0068V10.46C53.0068 10.1133 53.0201 9.7 53.0468 9.22C53.0734 8.74 53.0934 8.33333 53.1068 8H53.0268C52.8668 8.30667 52.7001 8.60667 52.5268 8.9C52.3534 9.19333 52.1734 9.49333 51.9868 9.8L49.0068 14.16ZM53.0068 19V15.48H47.2668V14.4L52.7268 6.24H54.5668V14.16H56.3068V15.48H54.5668V19H53.0068ZM57.2082 22.2L62.5482 4.8H63.7482L58.4082 22.2H57.2082ZM67.6804 19C67.7604 17.4 67.927 15.9667 68.1804 14.7C68.447 13.42 68.8337 12.22 69.3404 11.1C69.8604 9.96667 70.5404 8.82 71.3804 7.66H65.0204V6.24H73.2404V7.26C72.4804 8.22 71.8604 9.14667 71.3804 10.04C70.9004 10.92 70.527 11.8133 70.2604 12.72C69.9937 13.6133 69.7937 14.5733 69.6604 15.6C69.527 16.6267 69.4337 17.76 69.3804 19H67.6804ZM42.2854 44.24C41.3654 44.24 40.512 44.0667 39.7254 43.72C38.9387 43.36 38.2587 42.8867 37.6854 42.3L38.6854 41.14C39.152 41.6333 39.6987 42.0333 40.3254 42.34C40.9654 42.6333 41.6254 42.78 42.3054 42.78C43.172 42.78 43.8454 42.5867 44.3254 42.2C44.8054 41.8 45.0454 41.28 45.0454 40.64C45.0454 40.1867 44.9454 39.8267 44.7454 39.56C44.5587 39.2933 44.2987 39.0667 43.9654 38.88C43.6454 38.6933 43.2787 38.5067 42.8654 38.32L40.9854 37.5C40.572 37.3267 40.1587 37.1 39.7454 36.82C39.3454 36.54 39.0054 36.18 38.7254 35.74C38.4587 35.3 38.3254 34.76 38.3254 34.12C38.3254 33.4533 38.4987 32.86 38.8454 32.34C39.2054 31.8067 39.6987 31.3933 40.3254 31.1C40.952 30.7933 41.6587 30.64 42.4454 30.64C43.232 30.64 43.9587 30.7933 44.6254 31.1C45.292 31.3933 45.8587 31.78 46.3254 32.26L45.4254 33.34C45.0254 32.9533 44.5787 32.6533 44.0854 32.44C43.6054 32.2133 43.0587 32.1 42.4454 32.1C41.712 32.1 41.1187 32.2733 40.6654 32.62C40.2254 32.9667 40.0054 33.4333 40.0054 34.02C40.0054 34.4333 40.112 34.78 40.3254 35.06C40.552 35.3267 40.832 35.5467 41.1654 35.72C41.4987 35.8933 41.8387 36.0533 42.1854 36.2L44.0454 37C44.552 37.2133 45.0054 37.4733 45.4054 37.78C45.8187 38.0733 46.1454 38.44 46.3854 38.88C46.6254 39.3067 46.7454 39.8467 46.7454 40.5C46.7454 41.1933 46.5654 41.8267 46.2054 42.4C45.8454 42.96 45.332 43.4067 44.6654 43.74C43.9987 44.0733 43.2054 44.24 42.2854 44.24ZM52.149 44.24C51.1223 44.24 50.369 43.92 49.889 43.28C49.409 42.6267 49.169 41.68 49.169 40.44V34.28H50.829V40.22C50.829 41.1267 50.969 41.7867 51.249 42.2C51.5423 42.6133 52.009 42.82 52.649 42.82C53.1556 42.82 53.6023 42.6933 53.989 42.44C54.389 42.1733 54.8156 41.7533 55.269 41.18V34.28H56.909V44H55.549L55.409 42.48H55.349C54.8956 43.0133 54.4156 43.44 53.909 43.76C53.4023 44.08 52.8156 44.24 52.149 44.24ZM60.3279 48.1V34.28H61.6879L61.8279 35.4H61.8879C62.3279 35.0267 62.8079 34.7067 63.3279 34.44C63.8612 34.1733 64.4145 34.04 64.9879 34.04C66.2412 34.04 67.1945 34.4933 67.8479 35.4C68.5012 36.2933 68.8279 37.4933 68.8279 39C68.8279 40.0933 68.6279 41.0333 68.2279 41.82C67.8412 42.6067 67.3279 43.2067 66.6879 43.62C66.0612 44.0333 65.3745 44.24 64.6279 44.24C64.1745 44.24 63.7212 44.14 63.2679 43.94C62.8279 43.74 62.3812 43.4667 61.9279 43.12L61.9679 44.82V48.1H60.3279ZM64.3479 42.86C65.1479 42.86 65.8079 42.52 66.3279 41.84C66.8612 41.1467 67.1279 40.2 67.1279 39C67.1279 37.9333 66.9279 37.0733 66.5279 36.42C66.1412 35.7533 65.4879 35.42 64.5679 35.42C64.1545 35.42 63.7345 35.5333 63.3079 35.76C62.8945 35.9867 62.4479 36.3133 61.9679 36.74V41.84C62.4079 42.2133 62.8345 42.48 63.2479 42.64C63.6612 42.7867 64.0279 42.86 64.3479 42.86ZM71.5616 48.1V34.28H72.9216L73.0616 35.4H73.1216C73.5616 35.0267 74.0416 34.7067 74.5616 34.44C75.0949 34.1733 75.6483 34.04 76.2216 34.04C77.4749 34.04 78.4283 34.4933 79.0816 35.4C79.7349 36.2933 80.0616 37.4933 80.0616 39C80.0616 40.0933 79.8616 41.0333 79.4616 41.82C79.0749 42.6067 78.5616 43.2067 77.9216 43.62C77.2949 44.0333 76.6083 44.24 75.8616 44.24C75.4083 44.24 74.9549 44.14 74.5016 43.94C74.0616 43.74 73.6149 43.4667 73.1616 43.12L73.2016 44.82V48.1H71.5616ZM75.5816 42.86C76.3816 42.86 77.0416 42.52 77.5616 41.84C78.0949 41.1467 78.3616 40.2 78.3616 39C78.3616 37.9333 78.1616 37.0733 77.7616 36.42C77.3749 35.7533 76.7216 35.42 75.8016 35.42C75.3883 35.42 74.9683 35.5333 74.5416 35.76C74.1283 35.9867 73.6816 36.3133 73.2016 36.74V41.84C73.6416 42.2133 74.0683 42.48 74.4816 42.64C74.8949 42.7867 75.2616 42.86 75.5816 42.86ZM86.5754 44.24C85.7887 44.24 85.0487 44.04 84.3554 43.64C83.6754 43.24 83.122 42.66 82.6954 41.9C82.282 41.14 82.0754 40.2267 82.0754 39.16C82.0754 38.0667 82.282 37.14 82.6954 36.38C83.122 35.62 83.6754 35.04 84.3554 34.64C85.0487 34.24 85.7887 34.04 86.5754 34.04C87.3754 34.04 88.1154 34.24 88.7954 34.64C89.4754 35.04 90.022 35.62 90.4354 36.38C90.862 37.14 91.0754 38.0667 91.0754 39.16C91.0754 40.2267 90.862 41.14 90.4354 41.9C90.022 42.66 89.4754 43.24 88.7954 43.64C88.1154 44.04 87.3754 44.24 86.5754 44.24ZM86.5754 42.88C87.4154 42.88 88.0887 42.54 88.5954 41.86C89.1154 41.1667 89.3754 40.2667 89.3754 39.16C89.3754 38.04 89.1154 37.1333 88.5954 36.44C88.0887 35.7467 87.4154 35.4 86.5754 35.4C85.7487 35.4 85.0754 35.7467 84.5554 36.44C84.0354 37.1333 83.7754 38.04 83.7754 39.16C83.7754 40.2667 84.0354 41.1667 84.5554 41.86C85.0754 42.54 85.7487 42.88 86.5754 42.88ZM93.7752 44V34.28H95.1352L95.2752 36.04H95.3352C95.6685 35.4267 96.0752 34.94 96.5552 34.58C97.0352 34.22 97.5485 34.04 98.0952 34.04C98.4819 34.04 98.8285 34.1067 99.1352 34.24L98.8152 35.68C98.6552 35.6267 98.5085 35.5867 98.3752 35.56C98.2419 35.5333 98.0752 35.52 97.8752 35.52C97.4619 35.52 97.0285 35.6867 96.5752 36.02C96.1352 36.3533 95.7485 36.9333 95.4152 37.76V44H93.7752ZM103.909 44.24C102.869 44.24 102.142 43.94 101.729 43.34C101.329 42.74 101.129 41.96 101.129 41V35.62H99.6888V34.38L101.209 34.28L101.409 31.56H102.789V34.28H105.409V35.62H102.789V41.02C102.789 41.62 102.895 42.0867 103.109 42.42C103.335 42.74 103.729 42.9 104.289 42.9C104.462 42.9 104.649 42.8733 104.849 42.82C105.049 42.7533 105.229 42.6933 105.389 42.64L105.709 43.88C105.442 43.9733 105.149 44.0533 104.829 44.12C104.522 44.2 104.215 44.24 103.909 44.24Z" fill="white"/>
</svg>
