<svg width="216" height="49" viewBox="0 0 216 49" fill="none" xmlns="http://www.w3.org/2000/svg">
<path d="M5.17526 26L9.13403 30L19.0309 20" stroke="#2ECD6F" stroke-width="2" stroke-linecap="round" stroke-linejoin="round"/>
<path d="M40.9054 11.66L40.2854 13.66H44.2254L43.6054 11.66C43.3654 10.9267 43.1387 10.2 42.9254 9.48C42.712 8.74667 42.4987 8 42.2854 7.24H42.2054C42.0054 8 41.7987 8.74667 41.5854 9.48C41.372 10.2 41.1454 10.9267 40.9054 11.66ZM36.9054 19L41.3454 5.88H43.2254L47.6654 19H45.8854L44.6454 15H39.8654L38.6054 19H36.9054ZM53.3443 19.24C52.4909 19.24 51.7176 19.04 51.0243 18.64C50.3309 18.24 49.7843 17.66 49.3843 16.9C48.9843 16.14 48.7843 15.2267 48.7843 14.16C48.7843 13.0667 48.9976 12.14 49.4243 11.38C49.8643 10.62 50.4376 10.04 51.1443 9.64C51.8643 9.24 52.6376 9.04 53.4643 9.04C54.1043 9.04 54.6509 9.15333 55.1043 9.38C55.5709 9.60667 55.9709 9.87333 56.3043 10.18L55.4643 11.26C55.1843 11.0067 54.8843 10.8 54.5643 10.64C54.2576 10.48 53.9109 10.4 53.5243 10.4C52.9376 10.4 52.4109 10.56 51.9443 10.88C51.4909 11.1867 51.1309 11.6267 50.8643 12.2C50.6109 12.76 50.4843 13.4133 50.4843 14.16C50.4843 15.2667 50.7576 16.1667 51.3043 16.86C51.8643 17.54 52.5909 17.88 53.4843 17.88C53.9376 17.88 54.3576 17.7867 54.7443 17.6C55.1309 17.4 55.4709 17.1667 55.7643 16.9L56.4843 18C56.0443 18.3867 55.5576 18.6933 55.0243 18.92C54.4909 19.1333 53.9309 19.24 53.3443 19.24ZM62.1757 19.24C61.3223 19.24 60.549 19.04 59.8557 18.64C59.1623 18.24 58.6157 17.66 58.2157 16.9C57.8157 16.14 57.6157 15.2267 57.6157 14.16C57.6157 13.0667 57.829 12.14 58.2557 11.38C58.6957 10.62 59.269 10.04 59.9757 9.64C60.6957 9.24 61.469 9.04 62.2957 9.04C62.9357 9.04 63.4823 9.15333 63.9357 9.38C64.4023 9.60667 64.8023 9.87333 65.1357 10.18L64.2957 11.26C64.0157 11.0067 63.7157 10.8 63.3957 10.64C63.089 10.48 62.7423 10.4 62.3557 10.4C61.769 10.4 61.2423 10.56 60.7757 10.88C60.3223 11.1867 59.9623 11.6267 59.6957 12.2C59.4423 12.76 59.3157 13.4133 59.3157 14.16C59.3157 15.2667 59.589 16.1667 60.1357 16.86C60.6957 17.54 61.4223 17.88 62.3157 17.88C62.769 17.88 63.189 17.7867 63.5757 17.6C63.9623 17.4 64.3023 17.1667 64.5957 16.9L65.3157 18C64.8757 18.3867 64.389 18.6933 63.8557 18.92C63.3223 19.1333 62.7623 19.24 62.1757 19.24ZM71.1071 19.24C70.2404 19.24 69.4538 19.04 68.7471 18.64C68.0404 18.2267 67.4804 17.64 67.0671 16.88C66.6538 16.12 66.4471 15.2133 66.4471 14.16C66.4471 13.0933 66.6538 12.18 67.0671 11.42C67.4938 10.66 68.0404 10.0733 68.7071 9.66C69.3738 9.24667 70.0738 9.04 70.8071 9.04C72.0471 9.04 73.0004 9.45333 73.6671 10.28C74.3471 11.1067 74.6871 12.2133 74.6871 13.6C74.6871 13.7733 74.6804 13.9467 74.6671 14.12C74.6671 14.28 74.6538 14.42 74.6271 14.54H68.0671C68.1338 15.5667 68.4538 16.3867 69.0271 17C69.6138 17.6133 70.3738 17.92 71.3071 17.92C71.7738 17.92 72.2004 17.8533 72.5871 17.72C72.9871 17.5733 73.3671 17.3867 73.7271 17.16L74.3071 18.24C73.8938 18.5067 73.4204 18.74 72.8871 18.94C72.3671 19.14 71.7738 19.24 71.1071 19.24ZM68.0471 13.36H73.2471C73.2471 12.3733 73.0338 11.6267 72.6071 11.12C72.1938 10.6 71.6071 10.34 70.8471 10.34C70.1671 10.34 69.5538 10.6067 69.0071 11.14C68.4738 11.66 68.1538 12.4 68.0471 13.36ZM79.769 19.24C79.0756 19.24 78.4156 19.1133 77.789 18.86C77.1623 18.5933 76.6156 18.2733 76.149 17.9L76.969 16.8C77.3956 17.1333 77.8356 17.4133 78.289 17.64C78.7423 17.8533 79.2556 17.96 79.829 17.96C80.469 17.96 80.949 17.8133 81.269 17.52C81.589 17.2133 81.749 16.8533 81.749 16.44C81.749 16.1067 81.6356 15.8267 81.409 15.6C81.1956 15.3733 80.9156 15.1867 80.569 15.04C80.2356 14.88 79.889 14.7333 79.529 14.6C79.0756 14.4267 78.629 14.2333 78.189 14.02C77.749 13.7933 77.389 13.5067 77.109 13.16C76.829 12.8 76.689 12.3467 76.689 11.8C76.689 11.0133 76.9823 10.36 77.569 9.84C78.169 9.30667 78.9956 9.04 80.049 9.04C80.649 9.04 81.209 9.14667 81.729 9.36C82.249 9.57333 82.6956 9.83333 83.069 10.14L82.269 11.18C81.9356 10.9267 81.589 10.72 81.229 10.56C80.869 10.4 80.4756 10.32 80.049 10.32C79.4356 10.32 78.9823 10.46 78.689 10.74C78.409 11.02 78.269 11.3467 78.269 11.72C78.269 12.0267 78.369 12.28 78.569 12.48C78.769 12.6667 79.029 12.8333 79.349 12.98C79.669 13.1133 80.009 13.2533 80.369 13.4C80.8356 13.5733 81.2956 13.7733 81.749 14C82.2023 14.2133 82.5756 14.5067 82.869 14.88C83.1756 15.24 83.329 15.7267 83.329 16.34C83.329 16.86 83.189 17.34 82.909 17.78C82.6423 18.22 82.2423 18.5733 81.709 18.84C81.189 19.1067 80.5423 19.24 79.769 19.24ZM88.2879 19.24C87.5945 19.24 86.9345 19.1133 86.3079 18.86C85.6812 18.5933 85.1345 18.2733 84.6679 17.9L85.4879 16.8C85.9145 17.1333 86.3545 17.4133 86.8079 17.64C87.2612 17.8533 87.7745 17.96 88.3479 17.96C88.9879 17.96 89.4679 17.8133 89.7879 17.52C90.1079 17.2133 90.2679 16.8533 90.2679 16.44C90.2679 16.1067 90.1545 15.8267 89.9279 15.6C89.7145 15.3733 89.4345 15.1867 89.0879 15.04C88.7545 14.88 88.4079 14.7333 88.0479 14.6C87.5945 14.4267 87.1479 14.2333 86.7079 14.02C86.2679 13.7933 85.9079 13.5067 85.6279 13.16C85.3479 12.8 85.2079 12.3467 85.2079 11.8C85.2079 11.0133 85.5012 10.36 86.0879 9.84C86.6879 9.30667 87.5145 9.04 88.5679 9.04C89.1679 9.04 89.7279 9.14667 90.2479 9.36C90.7679 9.57333 91.2145 9.83333 91.5879 10.14L90.7879 11.18C90.4545 10.9267 90.1079 10.72 89.7479 10.56C89.3879 10.4 88.9945 10.32 88.5679 10.32C87.9545 10.32 87.5012 10.46 87.2079 10.74C86.9279 11.02 86.7879 11.3467 86.7879 11.72C86.7879 12.0267 86.8879 12.28 87.0879 12.48C87.2879 12.6667 87.5479 12.8333 87.8679 12.98C88.1879 13.1133 88.5279 13.2533 88.8879 13.4C89.3545 13.5733 89.8145 13.7733 90.2679 14C90.7212 14.2133 91.0945 14.5067 91.3879 14.88C91.6945 15.24 91.8479 15.7267 91.8479 16.34C91.8479 16.86 91.7079 17.34 91.4279 17.78C91.1612 18.22 90.7612 18.5733 90.2279 18.84C89.7079 19.1067 89.0612 19.24 88.2879 19.24ZM101.471 19.24C100.431 19.24 99.704 18.94 99.2907 18.34C98.8907 17.74 98.6907 16.96 98.6907 16V10.62H97.2507V9.38L98.7707 9.28L98.9707 6.56H100.351V9.28H102.971V10.62H100.351V16.02C100.351 16.62 100.457 17.0867 100.671 17.42C100.897 17.74 101.291 17.9 101.851 17.9C102.024 17.9 102.211 17.8733 102.411 17.82C102.611 17.7533 102.791 17.6933 102.951 17.64L103.271 18.88C103.004 18.9733 102.711 19.0533 102.391 19.12C102.084 19.2 101.777 19.24 101.471 19.24ZM108.815 19.24C108.028 19.24 107.288 19.04 106.595 18.64C105.915 18.24 105.362 17.66 104.935 16.9C104.522 16.14 104.315 15.2267 104.315 14.16C104.315 13.0667 104.522 12.14 104.935 11.38C105.362 10.62 105.915 10.04 106.595 9.64C107.288 9.24 108.028 9.04 108.815 9.04C109.615 9.04 110.355 9.24 111.035 9.64C111.715 10.04 112.262 10.62 112.675 11.38C113.102 12.14 113.315 13.0667 113.315 14.16C113.315 15.2267 113.102 16.14 112.675 16.9C112.262 17.66 111.715 18.24 111.035 18.64C110.355 19.04 109.615 19.24 108.815 19.24ZM108.815 17.88C109.655 17.88 110.328 17.54 110.835 16.86C111.355 16.1667 111.615 15.2667 111.615 14.16C111.615 13.04 111.355 12.1333 110.835 11.44C110.328 10.7467 109.655 10.4 108.815 10.4C107.988 10.4 107.315 10.7467 106.795 11.44C106.275 12.1333 106.015 13.04 106.015 14.16C106.015 15.2667 106.275 16.1667 106.795 16.86C107.315 17.54 107.988 17.88 108.815 17.88ZM122.579 11.66L121.959 13.66H125.899L125.279 11.66C125.039 10.9267 124.812 10.2 124.599 9.48C124.385 8.74667 124.172 8 123.959 7.24H123.879C123.679 8 123.472 8.74667 123.259 9.48C123.045 10.2 122.819 10.9267 122.579 11.66ZM118.579 19L123.019 5.88H124.899L129.339 19H127.559L126.319 15H121.539L120.279 19H118.579ZM132.918 19.24C132.304 19.24 131.858 19.0533 131.578 18.68C131.311 18.2933 131.178 17.7467 131.178 17.04V4.76H132.818V17.16C132.818 17.4133 132.864 17.6 132.958 17.72C133.051 17.8267 133.158 17.88 133.278 17.88C133.331 17.88 133.378 17.88 133.418 17.88C133.471 17.8667 133.544 17.8533 133.638 17.84L133.858 19.08C133.751 19.1333 133.624 19.1733 133.478 19.2C133.331 19.2267 133.144 19.24 132.918 19.24ZM138.155 19.24C137.542 19.24 137.095 19.0533 136.815 18.68C136.549 18.2933 136.415 17.7467 136.415 17.04V4.76H138.055V17.16C138.055 17.4133 138.102 17.6 138.195 17.72C138.289 17.8267 138.395 17.88 138.515 17.88C138.569 17.88 138.615 17.88 138.655 17.88C138.709 17.8667 138.782 17.8533 138.875 17.84L139.095 19.08C138.989 19.1333 138.862 19.1733 138.715 19.2C138.569 19.2267 138.382 19.24 138.155 19.24ZM38.6454 44V30.88H46.2054V32.28H40.3054V36.72H45.3054V38.12H40.3054V44H38.6454ZM52.1747 44.24C51.3081 44.24 50.5214 44.04 49.8147 43.64C49.1081 43.2267 48.5481 42.64 48.1347 41.88C47.7214 41.12 47.5147 40.2133 47.5147 39.16C47.5147 38.0933 47.7214 37.18 48.1347 36.42C48.5614 35.66 49.1081 35.0733 49.7747 34.66C50.4414 34.2467 51.1414 34.04 51.8747 34.04C53.1147 34.04 54.0681 34.4533 54.7347 35.28C55.4147 36.1067 55.7547 37.2133 55.7547 38.6C55.7547 38.7733 55.7481 38.9467 55.7347 39.12C55.7347 39.28 55.7214 39.42 55.6947 39.54H49.1347C49.2014 40.5667 49.5214 41.3867 50.0947 42C50.6814 42.6133 51.4414 42.92 52.3747 42.92C52.8414 42.92 53.2681 42.8533 53.6547 42.72C54.0547 42.5733 54.4347 42.3867 54.7947 42.16L55.3747 43.24C54.9614 43.5067 54.4881 43.74 53.9547 43.94C53.4347 44.14 52.8414 44.24 52.1747 44.24ZM49.1147 38.36H54.3147C54.3147 37.3733 54.1014 36.6267 53.6747 36.12C53.2614 35.6 52.6747 35.34 51.9147 35.34C51.2347 35.34 50.6214 35.6067 50.0747 36.14C49.5414 36.66 49.2214 37.4 49.1147 38.36ZM60.2632 44.24C59.4498 44.24 58.7698 44 58.2232 43.52C57.6898 43.0267 57.4232 42.3467 57.4232 41.48C57.4232 40.4133 57.8965 39.6 58.8432 39.04C59.8032 38.4667 61.3165 38.0667 63.3832 37.84C63.3832 37.4267 63.3232 37.0333 63.2032 36.66C63.0965 36.2867 62.8965 35.9867 62.6032 35.76C62.3232 35.52 61.9165 35.4 61.3832 35.4C60.8232 35.4 60.2965 35.5067 59.8032 35.72C59.3098 35.9333 58.8698 36.1733 58.4832 36.44L57.8432 35.3C58.2965 35.0067 58.8498 34.7267 59.5032 34.46C60.1698 34.18 60.8898 34.04 61.6632 34.04C62.8498 34.04 63.7098 34.4067 64.2432 35.14C64.7765 35.86 65.0432 36.8267 65.0432 38.04V44H63.6832L63.5432 42.84H63.4832C63.0298 43.2133 62.5298 43.54 61.9832 43.82C61.4498 44.1 60.8765 44.24 60.2632 44.24ZM60.7432 42.92C61.2098 42.92 61.6498 42.8067 62.0632 42.58C62.4765 42.3533 62.9165 42.0333 63.3832 41.62V38.92C61.7698 39.12 60.6365 39.42 59.9832 39.82C59.3432 40.22 59.0232 40.7333 59.0232 41.36C59.0232 41.9067 59.1898 42.3067 59.5232 42.56C59.8565 42.8 60.2632 42.92 60.7432 42.92ZM71.0279 44.24C69.9879 44.24 69.2612 43.94 68.8479 43.34C68.4479 42.74 68.2479 41.96 68.2479 41V35.62H66.8079V34.38L68.3279 34.28L68.5279 31.56H69.9079V34.28H72.5279V35.62H69.9079V41.02C69.9079 41.62 70.0145 42.0867 70.2279 42.42C70.4545 42.74 70.8479 42.9 71.4079 42.9C71.5812 42.9 71.7679 42.8733 71.9679 42.82C72.1679 42.7533 72.3479 42.6933 72.5079 42.64L72.8279 43.88C72.5612 43.9733 72.2679 44.0533 71.9479 44.12C71.6412 44.2 71.3345 44.24 71.0279 44.24ZM77.7057 44.24C76.679 44.24 75.9257 43.92 75.4457 43.28C74.9657 42.6267 74.7257 41.68 74.7257 40.44V34.28H76.3857V40.22C76.3857 41.1267 76.5257 41.7867 76.8057 42.2C77.099 42.6133 77.5657 42.82 78.2057 42.82C78.7123 42.82 79.159 42.6933 79.5457 42.44C79.9457 42.1733 80.3723 41.7533 80.8257 41.18V34.28H82.4657V44H81.1057L80.9657 42.48H80.9057C80.4523 43.0133 79.9723 43.44 79.4657 43.76C78.959 44.08 78.3723 44.24 77.7057 44.24ZM85.8846 44V34.28H87.2446L87.3846 36.04H87.4446C87.7779 35.4267 88.1846 34.94 88.6646 34.58C89.1446 34.22 89.6579 34.04 90.2046 34.04C90.5913 34.04 90.9379 34.1067 91.2446 34.24L90.9246 35.68C90.7646 35.6267 90.6179 35.5867 90.4846 35.56C90.3513 35.5333 90.1846 35.52 89.9846 35.52C89.5713 35.52 89.1379 35.6867 88.6846 36.02C88.2446 36.3533 87.8579 36.9333 87.5246 37.76V44H85.8846ZM96.7029 44.24C95.8362 44.24 95.0495 44.04 94.3429 43.64C93.6362 43.2267 93.0762 42.64 92.6629 41.88C92.2495 41.12 92.0429 40.2133 92.0429 39.16C92.0429 38.0933 92.2495 37.18 92.6629 36.42C93.0895 35.66 93.6362 35.0733 94.3029 34.66C94.9695 34.2467 95.6695 34.04 96.4029 34.04C97.6429 34.04 98.5962 34.4533 99.2629 35.28C99.9429 36.1067 100.283 37.2133 100.283 38.6C100.283 38.7733 100.276 38.9467 100.263 39.12C100.263 39.28 100.25 39.42 100.223 39.54H93.6629C93.7295 40.5667 94.0495 41.3867 94.6229 42C95.2095 42.6133 95.9695 42.92 96.9029 42.92C97.3695 42.92 97.7962 42.8533 98.1829 42.72C98.5829 42.5733 98.9629 42.3867 99.3229 42.16L99.9029 43.24C99.4895 43.5067 99.0162 43.74 98.4829 43.94C97.9629 44.14 97.3695 44.24 96.7029 44.24ZM93.6429 38.36H98.8429C98.8429 37.3733 98.6295 36.6267 98.2029 36.12C97.7895 35.6 97.2029 35.34 96.4429 35.34C95.7629 35.34 95.1495 35.6067 94.6029 36.14C94.0695 36.66 93.7495 37.4 93.6429 38.36ZM105.365 44.24C104.671 44.24 104.011 44.1133 103.385 43.86C102.758 43.5933 102.211 43.2733 101.745 42.9L102.565 41.8C102.991 42.1333 103.431 42.4133 103.885 42.64C104.338 42.8533 104.851 42.96 105.425 42.96C106.065 42.96 106.545 42.8133 106.865 42.52C107.185 42.2133 107.345 41.8533 107.345 41.44C107.345 41.1067 107.231 40.8267 107.005 40.6C106.791 40.3733 106.511 40.1867 106.165 40.04C105.831 39.88 105.485 39.7333 105.125 39.6C104.671 39.4267 104.225 39.2333 103.785 39.02C103.345 38.7933 102.985 38.5067 102.705 38.16C102.425 37.8 102.285 37.3467 102.285 36.8C102.285 36.0133 102.578 35.36 103.165 34.84C103.765 34.3067 104.591 34.04 105.645 34.04C106.245 34.04 106.805 34.1467 107.325 34.36C107.845 34.5733 108.291 34.8333 108.665 35.14L107.865 36.18C107.531 35.9267 107.185 35.72 106.825 35.56C106.465 35.4 106.071 35.32 105.645 35.32C105.031 35.32 104.578 35.46 104.285 35.74C104.005 36.02 103.865 36.3467 103.865 36.72C103.865 37.0267 103.965 37.28 104.165 37.48C104.365 37.6667 104.625 37.8333 104.945 37.98C105.265 38.1133 105.605 38.2533 105.965 38.4C106.431 38.5733 106.891 38.7733 107.345 39C107.798 39.2133 108.171 39.5067 108.465 39.88C108.771 40.24 108.925 40.7267 108.925 41.34C108.925 41.86 108.785 42.34 108.505 42.78C108.238 43.22 107.838 43.5733 107.305 43.84C106.785 44.1067 106.138 44.24 105.365 44.24Z" fill="white"/>
</svg>
