<svg width="140" height="117" viewBox="0 0 140 117" fill="none" xmlns="http://www.w3.org/2000/svg">
<path d="M7.32907 87.24C6.23573 87.24 5.2424 86.98 4.34907 86.46C3.45573 85.94 2.7424 85.18 2.20907 84.18C1.68907 83.1667 1.42907 81.94 1.42907 80.5C1.42907 79.0733 1.69573 77.8533 2.22907 76.84C2.77573 75.8133 3.5024 75.0333 4.40907 74.5C5.31573 73.9533 6.31573 73.68 7.40907 73.68C8.23573 73.68 8.96907 73.8467 9.60907 74.18C10.2491 74.5133 10.7757 74.9 11.1891 75.34L9.94907 76.84C9.61573 76.4933 9.2424 76.22 8.82907 76.02C8.42907 75.8067 7.97573 75.7 7.46907 75.7C6.7624 75.7 6.12907 75.8933 5.56907 76.28C5.0224 76.6533 4.58907 77.1933 4.26907 77.9C3.9624 78.6067 3.80907 79.4533 3.80907 80.44C3.80907 81.9333 4.13573 83.1067 4.78907 83.96C5.4424 84.8 6.31573 85.22 7.40907 85.22C7.99573 85.22 8.51573 85.1 8.96907 84.86C9.4224 84.6067 9.83573 84.28 10.2091 83.88L11.4491 85.34C10.9157 85.9533 10.3024 86.4267 9.60907 86.76C8.92907 87.08 8.16907 87.24 7.32907 87.24ZM17.5925 87.24C16.7792 87.24 16.0192 87.04 15.3125 86.64C14.6058 86.2267 14.0325 85.64 13.5925 84.88C13.1525 84.1067 12.9325 83.18 12.9325 82.1C12.9325 81.0067 13.1525 80.08 13.5925 79.32C14.0325 78.5467 14.6058 77.96 15.3125 77.56C16.0192 77.1467 16.7792 76.94 17.5925 76.94C18.4192 76.94 19.1858 77.1467 19.8925 77.56C20.5992 77.96 21.1725 78.5467 21.6125 79.32C22.0525 80.08 22.2725 81.0067 22.2725 82.1C22.2725 83.18 22.0525 84.1067 21.6125 84.88C21.1725 85.64 20.5992 86.2267 19.8925 86.64C19.1858 87.04 18.4192 87.24 17.5925 87.24ZM17.5925 85.36C18.3125 85.36 18.8792 85.06 19.2925 84.46C19.7058 83.86 19.9125 83.0733 19.9125 82.1C19.9125 81.1133 19.7058 80.32 19.2925 79.72C18.8792 79.12 18.3125 78.82 17.5925 78.82C16.8725 78.82 16.3058 79.12 15.8925 79.72C15.4925 80.32 15.2925 81.1133 15.2925 82.1C15.2925 83.0733 15.4925 83.86 15.8925 84.46C16.3058 85.06 16.8725 85.36 17.5925 85.36ZM24.6891 87V77.18H26.5891L26.7491 78.52H26.8291C27.2424 78.08 27.6891 77.7067 28.1691 77.4C28.6624 77.0933 29.2157 76.94 29.8291 76.94C30.5491 76.94 31.1224 77.1 31.5491 77.42C31.9891 77.7267 32.3224 78.1533 32.5491 78.7C33.0157 78.1933 33.5024 77.7733 34.0091 77.44C34.5291 77.1067 35.0957 76.94 35.7091 76.94C36.7491 76.94 37.5157 77.28 38.0091 77.96C38.5024 78.64 38.7491 79.6 38.7491 80.84V87H36.4291V81.14C36.4291 80.3267 36.3024 79.7533 36.0491 79.42C35.8091 79.0867 35.4357 78.92 34.9291 78.92C34.3157 78.92 33.6291 79.3267 32.8691 80.14V87H30.5691V81.14C30.5691 80.3267 30.4424 79.7533 30.1891 79.42C29.9491 79.0867 29.5691 78.92 29.0491 78.92C28.4357 78.92 27.7491 79.3267 26.9891 80.14V87H24.6891ZM41.6845 87V77.18H43.5845L43.7445 78.52H43.8245C44.2379 78.08 44.6845 77.7067 45.1645 77.4C45.6579 77.0933 46.2112 76.94 46.8245 76.94C47.5445 76.94 48.1179 77.1 48.5445 77.42C48.9845 77.7267 49.3179 78.1533 49.5445 78.7C50.0112 78.1933 50.4979 77.7733 51.0045 77.44C51.5245 77.1067 52.0912 76.94 52.7045 76.94C53.7445 76.94 54.5112 77.28 55.0045 77.96C55.4979 78.64 55.7445 79.6 55.7445 80.84V87H53.4245V81.14C53.4245 80.3267 53.2979 79.7533 53.0445 79.42C52.8045 79.0867 52.4312 78.92 51.9245 78.92C51.3112 78.92 50.6245 79.3267 49.8645 80.14V87H47.5645V81.14C47.5645 80.3267 47.4379 79.7533 47.1845 79.42C46.9445 79.0867 46.5645 78.92 46.0445 78.92C45.4312 78.92 44.7445 79.3267 43.9845 80.14V87H41.6845ZM61.6 87.24C60.5467 87.24 59.78 86.9 59.3 86.22C58.82 85.54 58.58 84.58 58.58 83.34V77.18H60.88V83.04C60.88 83.8533 61 84.4267 61.24 84.76C61.48 85.0933 61.8667 85.26 62.4 85.26C62.8267 85.26 63.2 85.1533 63.52 84.94C63.8533 84.7267 64.2067 84.38 64.58 83.9V77.18H66.88V87H65L64.82 85.56H64.76C64.3333 86.0667 63.8667 86.4733 63.36 86.78C62.8533 87.0867 62.2667 87.24 61.6 87.24ZM69.9333 87V77.18H71.8333L71.9933 78.5H72.0733C72.5133 78.0733 72.9933 77.7067 73.5133 77.4C74.0333 77.0933 74.6266 76.94 75.2933 76.94C76.3466 76.94 77.1133 77.28 77.5933 77.96C78.0733 78.64 78.3133 79.6 78.3133 80.84V87H76.0133V81.14C76.0133 80.3267 75.8933 79.7533 75.6533 79.42C75.4133 79.0867 75.0199 78.92 74.4733 78.92C74.0466 78.92 73.6666 79.0267 73.3333 79.24C73.0133 79.44 72.6466 79.74 72.2333 80.14V87H69.9333ZM81.2647 87V77.18H83.5647V87H81.2647ZM82.4247 75.46C82.0114 75.46 81.678 75.34 81.4247 75.1C81.1714 74.86 81.0447 74.54 81.0447 74.14C81.0447 73.7533 81.1714 73.44 81.4247 73.2C81.678 72.96 82.0114 72.84 82.4247 72.84C82.838 72.84 83.1714 72.96 83.4247 73.2C83.678 73.44 83.8047 73.7533 83.8047 74.14C83.8047 74.54 83.678 74.86 83.4247 75.1C83.1714 75.34 82.838 75.46 82.4247 75.46ZM90.7391 87.24C89.8457 87.24 89.0391 87.04 88.3191 86.64C87.6124 86.2267 87.0457 85.64 86.6191 84.88C86.2057 84.1067 85.9991 83.18 85.9991 82.1C85.9991 81.0067 86.2257 80.08 86.6791 79.32C87.1324 78.5467 87.7324 77.96 88.4791 77.56C89.2391 77.1467 90.0524 76.94 90.9191 76.94C91.5457 76.94 92.0924 77.0467 92.5591 77.26C93.0257 77.4733 93.4391 77.7333 93.7991 78.04L92.6791 79.54C92.4257 79.3133 92.1657 79.14 91.8991 79.02C91.6324 78.8867 91.3457 78.82 91.0391 78.82C90.2524 78.82 89.6057 79.12 89.0991 79.72C88.6057 80.32 88.3591 81.1133 88.3591 82.1C88.3591 83.0733 88.5991 83.86 89.0791 84.46C89.5724 85.06 90.2057 85.36 90.9791 85.36C91.3657 85.36 91.7257 85.28 92.0591 85.12C92.4057 84.9467 92.7191 84.7467 92.9991 84.52L93.9391 86.04C93.4857 86.44 92.9791 86.74 92.4191 86.94C91.8591 87.14 91.2991 87.24 90.7391 87.24ZM98.202 87.24C97.3487 87.24 96.6487 86.9733 96.102 86.44C95.5687 85.9067 95.302 85.2133 95.302 84.36C95.302 83.3067 95.762 82.4933 96.682 81.92C97.602 81.3333 99.0687 80.9333 101.082 80.72C101.069 80.2 100.929 79.7533 100.662 79.38C100.409 78.9933 99.9487 78.8 99.282 78.8C98.802 78.8 98.3287 78.8933 97.862 79.08C97.4087 79.2667 96.962 79.4933 96.522 79.76L95.682 78.22C96.2287 77.8733 96.842 77.5733 97.522 77.32C98.2154 77.0667 98.9487 76.94 99.722 76.94C100.949 76.94 101.862 77.3067 102.462 78.04C103.075 78.76 103.382 79.8067 103.382 81.18V87H101.482L101.322 85.92H101.242C100.802 86.2933 100.329 86.6067 99.822 86.86C99.3287 87.1133 98.7887 87.24 98.202 87.24ZM98.942 85.44C99.342 85.44 99.702 85.3467 100.022 85.16C100.355 84.96 100.709 84.6933 101.082 84.36V82.16C99.7487 82.3333 98.822 82.5933 98.302 82.94C97.782 83.2733 97.522 83.6867 97.522 84.18C97.522 84.62 97.6554 84.94 97.922 85.14C98.1887 85.34 98.5287 85.44 98.942 85.44ZM109.422 87.24C108.289 87.24 107.482 86.9133 107.002 86.26C106.535 85.5933 106.302 84.7333 106.302 83.68V79H104.902V77.28L106.422 77.18L106.702 74.5H108.622V77.18H111.122V79H108.622V83.68C108.622 84.8267 109.082 85.4 110.002 85.4C110.175 85.4 110.355 85.38 110.542 85.34C110.729 85.2867 110.889 85.2333 111.022 85.18L111.422 86.88C111.155 86.9733 110.849 87.0533 110.502 87.12C110.169 87.2 109.809 87.24 109.422 87.24ZM113.329 87V77.18H115.629V87H113.329ZM114.489 75.46C114.075 75.46 113.742 75.34 113.489 75.1C113.235 74.86 113.109 74.54 113.109 74.14C113.109 73.7533 113.235 73.44 113.489 73.2C113.742 72.96 114.075 72.84 114.489 72.84C114.902 72.84 115.235 72.96 115.489 73.2C115.742 73.44 115.869 73.7533 115.869 74.14C115.869 74.54 115.742 74.86 115.489 75.1C115.235 75.34 114.902 75.46 114.489 75.46ZM122.723 87.24C121.91 87.24 121.15 87.04 120.443 86.64C119.736 86.2267 119.163 85.64 118.723 84.88C118.283 84.1067 118.063 83.18 118.063 82.1C118.063 81.0067 118.283 80.08 118.723 79.32C119.163 78.5467 119.736 77.96 120.443 77.56C121.15 77.1467 121.91 76.94 122.723 76.94C123.55 76.94 124.316 77.1467 125.023 77.56C125.73 77.96 126.303 78.5467 126.743 79.32C127.183 80.08 127.403 81.0067 127.403 82.1C127.403 83.18 127.183 84.1067 126.743 84.88C126.303 85.64 125.73 86.2267 125.023 86.64C124.316 87.04 123.55 87.24 122.723 87.24ZM122.723 85.36C123.443 85.36 124.01 85.06 124.423 84.46C124.836 83.86 125.043 83.0733 125.043 82.1C125.043 81.1133 124.836 80.32 124.423 79.72C124.01 79.12 123.443 78.82 122.723 78.82C122.003 78.82 121.436 79.12 121.023 79.72C120.623 80.32 120.423 81.1133 120.423 82.1C120.423 83.0733 120.623 83.86 121.023 84.46C121.436 85.06 122.003 85.36 122.723 85.36ZM129.82 87V77.18H131.72L131.88 78.5H131.96C132.4 78.0733 132.88 77.7067 133.4 77.4C133.92 77.0933 134.513 76.94 135.18 76.94C136.233 76.94 137 77.28 137.48 77.96C137.96 78.64 138.2 79.6 138.2 80.84V87H135.9V81.14C135.9 80.3267 135.78 79.7533 135.54 79.42C135.3 79.0867 134.906 78.92 134.36 78.92C133.933 78.92 133.553 79.0267 133.22 79.24C132.9 79.44 132.533 79.74 132.12 80.14V87H129.82ZM36.6146 112.24C35.5213 112.24 34.5279 111.98 33.6346 111.46C32.7413 110.94 32.0279 110.18 31.4946 109.18C30.9746 108.167 30.7146 106.94 30.7146 105.5C30.7146 104.073 30.9813 102.853 31.5146 101.84C32.0613 100.813 32.7879 100.033 33.6946 99.5C34.6013 98.9533 35.6013 98.68 36.6946 98.68C37.5213 98.68 38.2546 98.8467 38.8946 99.18C39.5346 99.5133 40.0613 99.9 40.4746 100.34L39.2346 101.84C38.9013 101.493 38.5279 101.22 38.1146 101.02C37.7146 100.807 37.2613 100.7 36.7546 100.7C36.0479 100.7 35.4146 100.893 34.8546 101.28C34.3079 101.653 33.8746 102.193 33.5546 102.9C33.2479 103.607 33.0946 104.453 33.0946 105.44C33.0946 106.933 33.4213 108.107 34.0746 108.96C34.7279 109.8 35.6013 110.22 36.6946 110.22C37.2813 110.22 37.8013 110.1 38.2546 109.86C38.7079 109.607 39.1213 109.28 39.4946 108.88L40.7346 110.34C40.2013 110.953 39.5879 111.427 38.8946 111.76C38.2146 112.08 37.4546 112.24 36.6146 112.24ZM42.858 112V97.88H45.158V101.52L45.078 103.42C45.4914 103.033 45.9514 102.693 46.458 102.4C46.9647 102.093 47.5514 101.94 48.218 101.94C49.2714 101.94 50.038 102.28 50.518 102.96C50.998 103.64 51.238 104.6 51.238 105.84V112H48.938V106.14C48.938 105.327 48.818 104.753 48.578 104.42C48.338 104.087 47.9447 103.92 47.398 103.92C46.9714 103.92 46.5914 104.027 46.258 104.24C45.938 104.44 45.5714 104.74 45.158 105.14V112H42.858ZM56.5304 112.24C55.6771 112.24 54.9771 111.973 54.4304 111.44C53.8971 110.907 53.6304 110.213 53.6304 109.36C53.6304 108.307 54.0904 107.493 55.0104 106.92C55.9304 106.333 57.3971 105.933 59.4104 105.72C59.3971 105.2 59.2571 104.753 58.9904 104.38C58.7371 103.993 58.2771 103.8 57.6104 103.8C57.1304 103.8 56.6571 103.893 56.1904 104.08C55.7371 104.267 55.2904 104.493 54.8504 104.76L54.0104 103.22C54.5571 102.873 55.1704 102.573 55.8504 102.32C56.5437 102.067 57.2771 101.94 58.0504 101.94C59.2771 101.94 60.1904 102.307 60.7904 103.04C61.4037 103.76 61.7104 104.807 61.7104 106.18V112H59.8104L59.6504 110.92H59.5704C59.1304 111.293 58.6571 111.607 58.1504 111.86C57.6571 112.113 57.1171 112.24 56.5304 112.24ZM57.2704 110.44C57.6704 110.44 58.0304 110.347 58.3504 110.16C58.6837 109.96 59.0371 109.693 59.4104 109.36V107.16C58.0771 107.333 57.1504 107.593 56.6304 107.94C56.1104 108.273 55.8504 108.687 55.8504 109.18C55.8504 109.62 55.9837 109.94 56.2504 110.14C56.5171 110.34 56.8571 110.44 57.2704 110.44ZM64.6029 112V102.18H66.5029L66.6629 103.5H66.7429C67.1829 103.073 67.6629 102.707 68.1829 102.4C68.7029 102.093 69.2962 101.94 69.9629 101.94C71.0162 101.94 71.7829 102.28 72.2629 102.96C72.7429 103.64 72.9829 104.6 72.9829 105.84V112H70.6829V106.14C70.6829 105.327 70.5629 104.753 70.3229 104.42C70.0829 104.087 69.6896 103.92 69.1429 103.92C68.7162 103.92 68.3362 104.027 68.0029 104.24C67.6829 104.44 67.3162 104.74 66.9029 105.14V112H64.6029ZM75.9343 112V102.18H77.8343L77.9943 103.5H78.0743C78.5143 103.073 78.9943 102.707 79.5143 102.4C80.0343 102.093 80.6276 101.94 81.2943 101.94C82.3476 101.94 83.1143 102.28 83.5943 102.96C84.0743 103.64 84.3143 104.6 84.3143 105.84V112H82.0143V106.14C82.0143 105.327 81.8943 104.753 81.6543 104.42C81.4143 104.087 81.021 103.92 80.4743 103.92C80.0476 103.92 79.6676 104.027 79.3343 104.24C79.0143 104.44 78.6476 104.74 78.2343 105.14V112H75.9343ZM91.4657 112.24C90.559 112.24 89.739 112.04 89.0057 111.64C88.2724 111.227 87.6924 110.64 87.2657 109.88C86.839 109.107 86.6257 108.18 86.6257 107.1C86.6257 106.033 86.839 105.113 87.2657 104.34C87.7057 103.567 88.2724 102.973 88.9657 102.56C89.659 102.147 90.3857 101.94 91.1457 101.94C92.039 101.94 92.7857 102.14 93.3857 102.54C93.9857 102.927 94.439 103.473 94.7457 104.18C95.0524 104.873 95.2057 105.68 95.2057 106.6C95.2057 107.08 95.1724 107.453 95.1057 107.72H88.8657C88.9724 108.587 89.2857 109.26 89.8057 109.74C90.3257 110.22 90.979 110.46 91.7657 110.46C92.1924 110.46 92.5857 110.4 92.9457 110.28C93.319 110.147 93.6857 109.967 94.0457 109.74L94.8257 111.18C94.359 111.487 93.839 111.74 93.2657 111.94C92.6924 112.14 92.0924 112.24 91.4657 112.24ZM88.8457 106.16H93.2057C93.2057 105.4 93.039 104.807 92.7057 104.38C92.3724 103.94 91.8724 103.72 91.2057 103.72C90.6324 103.72 90.119 103.933 89.6657 104.36C89.2257 104.773 88.9524 105.373 88.8457 106.16ZM99.7824 112.24C98.9691 112.24 98.3891 111.993 98.0424 111.5C97.7091 111.007 97.5424 110.333 97.5424 109.48V97.88H99.8424V109.6C99.8424 109.88 99.8957 110.08 100.002 110.2C100.109 110.307 100.222 110.36 100.342 110.36C100.396 110.36 100.442 110.36 100.482 110.36C100.536 110.347 100.609 110.333 100.702 110.32L101.002 112.04C100.869 112.093 100.696 112.14 100.482 112.18C100.282 112.22 100.049 112.24 99.7824 112.24ZM105.852 112.24C105.185 112.24 104.519 112.113 103.852 111.86C103.185 111.593 102.612 111.267 102.132 110.88L103.212 109.4C103.652 109.733 104.092 110 104.532 110.2C104.972 110.4 105.439 110.5 105.932 110.5C106.465 110.5 106.859 110.387 107.112 110.16C107.365 109.933 107.492 109.653 107.492 109.32C107.492 109.04 107.385 108.813 107.172 108.64C106.972 108.453 106.712 108.293 106.392 108.16C106.072 108.013 105.739 107.873 105.392 107.74C104.965 107.58 104.539 107.387 104.112 107.16C103.699 106.92 103.359 106.62 103.092 106.26C102.825 105.887 102.692 105.427 102.692 104.88C102.692 104.013 103.012 103.307 103.652 102.76C104.292 102.213 105.159 101.94 106.252 101.94C106.945 101.94 107.565 102.06 108.112 102.3C108.659 102.54 109.132 102.813 109.532 103.12L108.472 104.52C108.125 104.267 107.772 104.067 107.412 103.92C107.065 103.76 106.699 103.68 106.312 103.68C105.819 103.68 105.452 103.787 105.212 104C104.972 104.2 104.852 104.453 104.852 104.76C104.852 105.147 105.052 105.44 105.452 105.64C105.852 105.84 106.319 106.033 106.852 106.22C107.305 106.38 107.745 106.58 108.172 106.82C108.599 107.047 108.952 107.347 109.232 107.72C109.525 108.093 109.672 108.587 109.672 109.2C109.672 110.04 109.345 110.76 108.692 111.36C108.039 111.947 107.092 112.24 105.852 112.24Z" fill="white"/>
<path d="M79.245 27.8349C79.7609 27.8349 80.1793 27.4166 80.1793 26.9007C80.1793 26.3848 79.7609 25.9665 79.245 25.9665C78.7291 25.9665 78.3108 26.3848 78.3108 26.9007C78.3108 27.4166 78.7291 27.8349 79.245 27.8349Z" fill="#C54EFD" stroke="#C54EFD" stroke-width="1.6875" stroke-linecap="round" stroke-linejoin="round"/>
<path d="M69.9045 27.8349C70.4203 27.8349 70.8387 27.4166 70.8387 26.9007C70.8387 26.3848 70.4203 25.9665 69.9045 25.9665C69.3886 25.9665 68.9702 26.3848 68.9702 26.9007C68.9702 27.4166 69.3886 27.8349 69.9045 27.8349Z" fill="#C54EFD" stroke="#C54EFD" stroke-width="1.6875" stroke-linecap="round" stroke-linejoin="round"/>
<path d="M60.5606 27.8349C61.0765 27.8349 61.4948 27.4166 61.4948 26.9007C61.4948 26.3848 61.0765 25.9665 60.5606 25.9665C60.0446 25.9665 59.6263 26.3848 59.6263 26.9007C59.6263 27.4166 60.0446 27.8349 60.5606 27.8349Z" fill="#C54EFD" stroke="#C54EFD" stroke-width="1.6875" stroke-linecap="round" stroke-linejoin="round"/>
<path d="M69.9033 45.5868C80.2225 45.5868 88.5881 37.2212 88.5881 26.902C88.5881 16.5827 80.2225 8.21722 69.9033 8.21722C59.584 8.21722 51.2185 16.5827 51.2185 26.902C51.2185 30.3053 52.1284 33.4961 53.7182 36.2444L52.1527 44.6525L60.5609 43.0871C63.3092 44.6768 66.5 45.5868 69.9033 45.5868Z" stroke="#C54EFD" stroke-width="1.6875" stroke-linecap="round" stroke-linejoin="round"/>
</svg>
