<svg width="54" height="117" viewBox="0 0 54 117" fill="none" xmlns="http://www.w3.org/2000/svg">
<path d="M13.4692 87V73.92H15.7892V79.18H21.0892V73.92H23.4092V87H21.0892V81.2H15.7892V87H13.4692ZM26.8709 87V73.92H31.2909C32.1976 73.92 33.0109 74.04 33.7309 74.28C34.4643 74.52 35.0376 74.9267 35.4509 75.5C35.8776 76.06 36.0909 76.8267 36.0909 77.8C36.0909 78.8 35.8509 79.6067 35.3709 80.22C34.9043 80.8333 34.2776 81.2733 33.4909 81.54L36.6109 87H34.0109L31.1909 81.88H29.1909V87H26.8709ZM29.1909 80.04H31.0509C31.9443 80.04 32.6243 79.8533 33.0909 79.48C33.5709 79.0933 33.8109 78.5333 33.8109 77.8C33.8109 77.0533 33.5709 76.5333 33.0909 76.24C32.6243 75.9333 31.9443 75.78 31.0509 75.78H29.1909V80.04ZM7.77586 112V100.88H3.99586V98.92H13.8759V100.88H10.0959V112H7.77586ZM18.588 112.24C17.7747 112.24 17.0147 112.04 16.308 111.64C15.6014 111.227 15.028 110.64 14.588 109.88C14.148 109.107 13.928 108.18 13.928 107.1C13.928 106.007 14.148 105.08 14.588 104.32C15.028 103.547 15.6014 102.96 16.308 102.56C17.0147 102.147 17.7747 101.94 18.588 101.94C19.4147 101.94 20.1814 102.147 20.888 102.56C21.5947 102.96 22.168 103.547 22.608 104.32C23.048 105.08 23.268 106.007 23.268 107.1C23.268 108.18 23.048 109.107 22.608 109.88C22.168 110.64 21.5947 111.227 20.888 111.64C20.1814 112.04 19.4147 112.24 18.588 112.24ZM18.588 110.36C19.308 110.36 19.8747 110.06 20.288 109.46C20.7014 108.86 20.908 108.073 20.908 107.1C20.908 106.113 20.7014 105.32 20.288 104.72C19.8747 104.12 19.308 103.82 18.588 103.82C17.868 103.82 17.3014 104.12 16.888 104.72C16.488 105.32 16.288 106.113 16.288 107.1C16.288 108.073 16.488 108.86 16.888 109.46C17.3014 110.06 17.868 110.36 18.588 110.36ZM29.7046 112.24C28.8913 112.24 28.1313 112.04 27.4246 111.64C26.7179 111.227 26.1446 110.64 25.7046 109.88C25.2646 109.107 25.0446 108.18 25.0446 107.1C25.0446 106.007 25.2646 105.08 25.7046 104.32C26.1446 103.547 26.7179 102.96 27.4246 102.56C28.1313 102.147 28.8913 101.94 29.7046 101.94C30.5313 101.94 31.2979 102.147 32.0046 102.56C32.7113 102.96 33.2846 103.547 33.7246 104.32C34.1646 105.08 34.3846 106.007 34.3846 107.1C34.3846 108.18 34.1646 109.107 33.7246 109.88C33.2846 110.64 32.7113 111.227 32.0046 111.64C31.2979 112.04 30.5313 112.24 29.7046 112.24ZM29.7046 110.36C30.4246 110.36 30.9913 110.06 31.4046 109.46C31.8179 108.86 32.0246 108.073 32.0246 107.1C32.0246 106.113 31.8179 105.32 31.4046 104.72C30.9913 104.12 30.4246 103.82 29.7046 103.82C28.9846 103.82 28.4179 104.12 28.0046 104.72C27.6046 105.32 27.4046 106.113 27.4046 107.1C27.4046 108.073 27.6046 108.86 28.0046 109.46C28.4179 110.06 28.9846 110.36 29.7046 110.36ZM39.0412 112.24C38.2278 112.24 37.6478 111.993 37.3012 111.5C36.9678 111.007 36.8012 110.333 36.8012 109.48V97.88H39.1012V109.6C39.1012 109.88 39.1545 110.08 39.2612 110.2C39.3678 110.307 39.4812 110.36 39.6012 110.36C39.6545 110.36 39.7012 110.36 39.7412 110.36C39.7945 110.347 39.8678 110.333 39.9612 110.32L40.2612 112.04C40.1278 112.093 39.9545 112.14 39.7412 112.18C39.5412 112.22 39.3078 112.24 39.0412 112.24ZM45.1109 112.24C44.4442 112.24 43.7775 112.113 43.1109 111.86C42.4442 111.593 41.8709 111.267 41.3909 110.88L42.4709 109.4C42.9109 109.733 43.3509 110 43.7909 110.2C44.2309 110.4 44.6975 110.5 45.1909 110.5C45.7242 110.5 46.1175 110.387 46.3709 110.16C46.6242 109.933 46.7509 109.653 46.7509 109.32C46.7509 109.04 46.6442 108.813 46.4309 108.64C46.2309 108.453 45.9709 108.293 45.6509 108.16C45.3309 108.013 44.9975 107.873 44.6509 107.74C44.2242 107.58 43.7975 107.387 43.3709 107.16C42.9575 106.92 42.6175 106.62 42.3509 106.26C42.0842 105.887 41.9509 105.427 41.9509 104.88C41.9509 104.013 42.2709 103.307 42.9109 102.76C43.5509 102.213 44.4175 101.94 45.5109 101.94C46.2042 101.94 46.8242 102.06 47.3709 102.3C47.9175 102.54 48.3909 102.813 48.7909 103.12L47.7309 104.52C47.3842 104.267 47.0309 104.067 46.6709 103.92C46.3242 103.76 45.9575 103.68 45.5709 103.68C45.0775 103.68 44.7109 103.787 44.4709 104C44.2309 104.2 44.1109 104.453 44.1109 104.76C44.1109 105.147 44.3109 105.44 44.7109 105.64C45.1109 105.84 45.5775 106.033 46.1109 106.22C46.5642 106.38 47.0042 106.58 47.4309 106.82C47.8575 107.047 48.2109 107.347 48.4909 107.72C48.7842 108.093 48.9309 108.587 48.9309 109.2C48.9309 110.04 48.6042 110.76 47.9509 111.36C47.2975 111.947 46.3509 112.24 45.1109 112.24Z" fill="white"/>
<mask id="mask0_2114_37" style="mask-type:alpha" maskUnits="userSpaceOnUse" x="5" y="5" width="44" height="44">
<rect x="5.0625" y="5.0625" width="43.2125" height="43.2125" fill="#D9D9D9"/>
</mask>
<g mask="url(#mask0_2114_37)">
<path d="M37.1489 11.0335L33.5572 11.0337H17.0971M7.99561 22.9135V41.0757C7.99561 43.3048 9.90299 45.1118 12.2559 45.1118H42.0777C44.4306 45.1118 46.3379 43.3048 46.3379 41.0757V22.9135" stroke="#FFBE5B" stroke-width="1.58095" stroke-linecap="round" stroke-linejoin="round"/>
<path d="M27.281 34.2122L32.1436 39.0747M22.4185 39.0747L27.281 34.2122L22.4185 39.0747ZM32.1436 29.3496L27.281 34.2122L32.1436 29.3496ZM27.281 34.2122L22.4185 29.3496L27.281 34.2122Z" stroke="#FFBE5B" stroke-width="1.05396" stroke-linecap="round" stroke-linejoin="round"/>
<path d="M7.99561 23.8027V15.2822C7.99561 12.9293 9.90299 11.0219 12.2559 11.0219H16.5161" stroke="#FFBE5B" stroke-width="1.58095" stroke-linecap="round" stroke-linejoin="round"/>
<path d="M17.9822 8.22455V15.5279" stroke="#FFBE5B" stroke-width="1.58095" stroke-linecap="round" stroke-linejoin="round"/>
<path d="M36.4227 8.22455V15.5279" stroke="#FFBE5B" stroke-width="1.58095" stroke-linecap="round" stroke-linejoin="round"/>
<path d="M46.3461 23.8027V15.2822C46.3461 12.9293 44.4388 11.0219 42.0858 11.0219H33.5059" stroke="#FFBE5B" stroke-width="1.58095" stroke-linecap="round" stroke-linejoin="round"/>
<path d="M8.17688 22.055H46.1541" stroke="#FFBE5B" stroke-width="1.58095"/>
</g>
</svg>
