<svg width="68" height="117" viewBox="0 0 68 117" fill="none" xmlns="http://www.w3.org/2000/svg">
<path d="M12.0599 87.24C10.9266 87.24 9.92659 86.9667 9.05992 86.42C8.19325 85.86 7.51325 85.0733 7.01992 84.06C6.53992 83.0333 6.29992 81.8133 6.29992 80.4C6.29992 78.9867 6.53992 77.78 7.01992 76.78C7.51325 75.78 8.19325 75.0133 9.05992 74.48C9.92659 73.9467 10.9266 73.68 12.0599 73.68C13.2066 73.68 14.2133 73.9467 15.0799 74.48C15.9466 75.0133 16.6199 75.78 17.0999 76.78C17.5933 77.78 17.8399 78.9867 17.8399 80.4C17.8399 81.8133 17.5933 83.0333 17.0999 84.06C16.6199 85.0733 15.9466 85.86 15.0799 86.42C14.2133 86.9667 13.2066 87.24 12.0599 87.24ZM12.0599 85.22C13.0866 85.22 13.9066 84.7867 14.5199 83.92C15.1333 83.04 15.4399 81.8667 15.4399 80.4C15.4399 78.9333 15.1333 77.7867 14.5199 76.96C13.9066 76.12 13.0866 75.7 12.0599 75.7C11.0333 75.7 10.2133 76.12 9.59992 76.96C8.98659 77.7867 8.67992 78.9333 8.67992 80.4C8.67992 81.8667 8.98659 83.04 9.59992 83.92C10.2133 84.7867 11.0333 85.22 12.0599 85.22ZM20.3965 87V77.18H22.2965L22.4565 78.5H22.5365C22.9765 78.0733 23.4565 77.7067 23.9765 77.4C24.4965 77.0933 25.0898 76.94 25.7565 76.94C26.8098 76.94 27.5765 77.28 28.0565 77.96C28.5365 78.64 28.7765 79.6 28.7765 80.84V87H26.4765V81.14C26.4765 80.3267 26.3565 79.7533 26.1165 79.42C25.8765 79.0867 25.4832 78.92 24.9365 78.92C24.5098 78.92 24.1298 79.0267 23.7965 79.24C23.4765 79.44 23.1098 79.74 22.6965 80.14V87H20.3965ZM33.9679 87.24C33.1546 87.24 32.5746 86.9933 32.2279 86.5C31.8946 86.0067 31.7279 85.3333 31.7279 84.48V72.88H34.0279V84.6C34.0279 84.88 34.0812 85.08 34.1879 85.2C34.2946 85.3067 34.4079 85.36 34.5279 85.36C34.5812 85.36 34.6279 85.36 34.6679 85.36C34.7212 85.3467 34.7946 85.3333 34.8879 85.32L35.1879 87.04C35.0546 87.0933 34.8812 87.14 34.6679 87.18C34.4679 87.22 34.2346 87.24 33.9679 87.24ZM37.2976 87V77.18H39.5976V87H37.2976ZM38.4576 75.46C38.0442 75.46 37.7109 75.34 37.4576 75.1C37.2042 74.86 37.0776 74.54 37.0776 74.14C37.0776 73.7533 37.2042 73.44 37.4576 73.2C37.7109 72.96 38.0442 72.84 38.4576 72.84C38.8709 72.84 39.2042 72.96 39.4576 73.2C39.7109 73.44 39.8376 73.7533 39.8376 74.14C39.8376 74.54 39.7109 74.86 39.4576 75.1C39.2042 75.34 38.8709 75.46 38.4576 75.46ZM42.672 87V77.18H44.572L44.732 78.5H44.812C45.252 78.0733 45.732 77.7067 46.252 77.4C46.772 77.0933 47.3653 76.94 48.032 76.94C49.0853 76.94 49.852 77.28 50.332 77.96C50.812 78.64 51.052 79.6 51.052 80.84V87H48.752V81.14C48.752 80.3267 48.632 79.7533 48.392 79.42C48.152 79.0867 47.7586 78.92 47.212 78.92C46.7853 78.92 46.4053 79.0267 46.072 79.24C45.752 79.44 45.3853 79.74 44.972 80.14V87H42.672ZM58.2034 87.24C57.2967 87.24 56.4767 87.04 55.7434 86.64C55.01 86.2267 54.43 85.64 54.0034 84.88C53.5767 84.1067 53.3634 83.18 53.3634 82.1C53.3634 81.0333 53.5767 80.1133 54.0034 79.34C54.4434 78.5667 55.01 77.9733 55.7034 77.56C56.3967 77.1467 57.1234 76.94 57.8834 76.94C58.7767 76.94 59.5234 77.14 60.1234 77.54C60.7234 77.9267 61.1767 78.4733 61.4834 79.18C61.79 79.8733 61.9434 80.68 61.9434 81.6C61.9434 82.08 61.91 82.4533 61.8434 82.72H55.6034C55.71 83.5867 56.0234 84.26 56.5434 84.74C57.0634 85.22 57.7167 85.46 58.5034 85.46C58.93 85.46 59.3234 85.4 59.6834 85.28C60.0567 85.1467 60.4234 84.9667 60.7834 84.74L61.5634 86.18C61.0967 86.4867 60.5767 86.74 60.0034 86.94C59.43 87.14 58.83 87.24 58.2034 87.24ZM55.5834 81.16H59.9434C59.9434 80.4 59.7767 79.8067 59.4434 79.38C59.11 78.94 58.61 78.72 57.9434 78.72C57.37 78.72 56.8567 78.9333 56.4034 79.36C55.9634 79.7733 55.69 80.3733 55.5834 81.16ZM1.66578 112V98.92H6.08578C6.99245 98.92 7.80578 99.04 8.52578 99.28C9.25912 99.52 9.83245 99.9267 10.2458 100.5C10.6725 101.06 10.8858 101.827 10.8858 102.8C10.8858 103.8 10.6458 104.607 10.1658 105.22C9.69912 105.833 9.07245 106.273 8.28578 106.54L11.4058 112H8.80578L5.98578 106.88H3.98578V112H1.66578ZM3.98578 105.04H5.84578C6.73912 105.04 7.41912 104.853 7.88578 104.48C8.36578 104.093 8.60578 103.533 8.60578 102.8C8.60578 102.053 8.36578 101.533 7.88578 101.24C7.41912 100.933 6.73912 100.78 5.84578 100.78H3.98578V105.04ZM17.4464 112.24C16.5397 112.24 15.7197 112.04 14.9864 111.64C14.2531 111.227 13.6731 110.64 13.2464 109.88C12.8197 109.107 12.6064 108.18 12.6064 107.1C12.6064 106.033 12.8197 105.113 13.2464 104.34C13.6864 103.567 14.2531 102.973 14.9464 102.56C15.6397 102.147 16.3664 101.94 17.1264 101.94C18.0197 101.94 18.7664 102.14 19.3664 102.54C19.9664 102.927 20.4197 103.473 20.7264 104.18C21.0331 104.873 21.1864 105.68 21.1864 106.6C21.1864 107.08 21.1531 107.453 21.0864 107.72H14.8464C14.9531 108.587 15.2664 109.26 15.7864 109.74C16.3064 110.22 16.9597 110.46 17.7464 110.46C18.1731 110.46 18.5664 110.4 18.9264 110.28C19.2997 110.147 19.6664 109.967 20.0264 109.74L20.8064 111.18C20.3397 111.487 19.8197 111.74 19.2464 111.94C18.6731 112.14 18.0731 112.24 17.4464 112.24ZM14.8264 106.16H19.1864C19.1864 105.4 19.0197 104.807 18.6864 104.38C18.3531 103.94 17.8531 103.72 17.1864 103.72C16.6131 103.72 16.0997 103.933 15.6464 104.36C15.2064 104.773 14.9331 105.373 14.8264 106.16ZM23.5231 115.88V102.18H25.4231L25.5831 103.22H25.6631C26.0765 102.873 26.5365 102.573 27.0431 102.32C27.5631 102.067 28.0898 101.94 28.6231 101.94C29.8498 101.94 30.7965 102.393 31.4631 103.3C32.1431 104.207 32.4831 105.42 32.4831 106.94C32.4831 108.06 32.2831 109.02 31.8831 109.82C31.4831 110.607 30.9631 111.207 30.3231 111.62C29.6965 112.033 29.0165 112.24 28.2831 112.24C27.8565 112.24 27.4298 112.147 27.0031 111.96C26.5765 111.76 26.1631 111.493 25.7631 111.16L25.8231 112.8V115.88H23.5231ZM27.8031 110.34C28.4565 110.34 29.0031 110.053 29.4431 109.48C29.8831 108.907 30.1031 108.067 30.1031 106.96C30.1031 105.973 29.9365 105.207 29.6031 104.66C29.2698 104.113 28.7298 103.84 27.9831 103.84C27.2898 103.84 26.5698 104.207 25.8231 104.94V109.52C26.1831 109.813 26.5298 110.027 26.8631 110.16C27.1965 110.28 27.5098 110.34 27.8031 110.34ZM38.9722 112.24C38.1589 112.24 37.3989 112.04 36.6922 111.64C35.9855 111.227 35.4122 110.64 34.9722 109.88C34.5322 109.107 34.3122 108.18 34.3122 107.1C34.3122 106.007 34.5322 105.08 34.9722 104.32C35.4122 103.547 35.9855 102.96 36.6922 102.56C37.3989 102.147 38.1589 101.94 38.9722 101.94C39.7989 101.94 40.5655 102.147 41.2722 102.56C41.9789 102.96 42.5522 103.547 42.9922 104.32C43.4322 105.08 43.6522 106.007 43.6522 107.1C43.6522 108.18 43.4322 109.107 42.9922 109.88C42.5522 110.64 41.9789 111.227 41.2722 111.64C40.5655 112.04 39.7989 112.24 38.9722 112.24ZM38.9722 110.36C39.6922 110.36 40.2589 110.06 40.6722 109.46C41.0855 108.86 41.2922 108.073 41.2922 107.1C41.2922 106.113 41.0855 105.32 40.6722 104.72C40.2589 104.12 39.6922 103.82 38.9722 103.82C38.2522 103.82 37.6855 104.12 37.2722 104.72C36.8722 105.32 36.6722 106.113 36.6722 107.1C36.6722 108.073 36.8722 108.86 37.2722 109.46C37.6855 110.06 38.2522 110.36 38.9722 110.36ZM46.0688 112V102.18H47.9688L48.1288 103.92H48.2088C48.5554 103.28 48.9754 102.793 49.4688 102.46C49.9621 102.113 50.4688 101.94 50.9888 101.94C51.4554 101.94 51.8288 102.007 52.1088 102.14L51.7088 104.14C51.5354 104.087 51.3754 104.047 51.2288 104.02C51.0821 103.993 50.9021 103.98 50.6888 103.98C50.3021 103.98 49.8954 104.133 49.4688 104.44C49.0421 104.733 48.6754 105.253 48.3688 106V112H46.0688ZM57.1297 112.24C55.9964 112.24 55.1897 111.913 54.7097 111.26C54.243 110.593 54.0097 109.733 54.0097 108.68V104H52.6097V102.28L54.1297 102.18L54.4097 99.5H56.3297V102.18H58.8297V104H56.3297V108.68C56.3297 109.827 56.7897 110.4 57.7097 110.4C57.883 110.4 58.063 110.38 58.2497 110.34C58.4364 110.287 58.5964 110.233 58.7297 110.18L59.1297 111.88C58.863 111.973 58.5564 112.053 58.2097 112.12C57.8764 112.2 57.5164 112.24 57.1297 112.24ZM63.5809 112.24C62.9143 112.24 62.2476 112.113 61.5809 111.86C60.9143 111.593 60.3409 111.267 59.8609 110.88L60.9409 109.4C61.3809 109.733 61.8209 110 62.2609 110.2C62.7009 110.4 63.1676 110.5 63.6609 110.5C64.1943 110.5 64.5876 110.387 64.8409 110.16C65.0943 109.933 65.2209 109.653 65.2209 109.32C65.2209 109.04 65.1143 108.813 64.9009 108.64C64.7009 108.453 64.4409 108.293 64.1209 108.16C63.8009 108.013 63.4676 107.873 63.1209 107.74C62.6943 107.58 62.2676 107.387 61.8409 107.16C61.4276 106.92 61.0876 106.62 60.8209 106.26C60.5543 105.887 60.4209 105.427 60.4209 104.88C60.4209 104.013 60.7409 103.307 61.3809 102.76C62.0209 102.213 62.8876 101.94 63.9809 101.94C64.6743 101.94 65.2943 102.06 65.8409 102.3C66.3876 102.54 66.8609 102.813 67.2609 103.12L66.2009 104.52C65.8543 104.267 65.5009 104.067 65.1409 103.92C64.7943 103.76 64.4276 103.68 64.0409 103.68C63.5476 103.68 63.1809 103.787 62.9409 104C62.7009 104.2 62.5809 104.453 62.5809 104.76C62.5809 105.147 62.7809 105.44 63.1809 105.64C63.5809 105.84 64.0476 106.033 64.5809 106.22C65.0343 106.38 65.4743 106.58 65.9009 106.82C66.3276 107.047 66.6809 107.347 66.9609 107.72C67.2543 108.093 67.4009 108.587 67.4009 109.2C67.4009 110.04 67.0743 110.76 66.4209 111.36C65.7676 111.947 64.8209 112.24 63.5809 112.24Z" fill="white"/>
<path d="M51.1188 34.231C49.9363 37.0274 48.0868 39.4915 45.732 41.408C43.3772 43.3245 40.5888 44.6349 37.6106 45.2248C34.6323 45.8147 31.5549 45.666 28.6474 44.7917C25.7399 43.9175 23.0908 42.3444 20.9317 40.2098C18.7727 38.0752 17.1693 35.4443 16.262 32.5469C15.3546 29.6496 15.1708 26.5741 15.7266 23.5893C16.2824 20.6045 17.5609 17.8013 19.4504 15.4248C21.3399 13.0483 23.7827 11.1708 26.5654 9.95645" stroke="#1DC5F8" stroke-width="2.34783" stroke-linecap="round" stroke-linejoin="round"/>
<path d="M52.5784 27.0009C52.5784 24.5601 52.0977 22.1431 51.1636 19.888C50.2295 17.6329 48.8604 15.5839 47.1344 13.858C45.4085 12.132 43.3595 10.7629 41.1044 9.82882C38.8493 8.89474 36.4323 8.41397 33.9915 8.41397V27.0009H52.5784Z" stroke="#1DC5F8" stroke-width="2.34783" stroke-linecap="round" stroke-linejoin="round"/>
</svg>
