<svg width="112" height="117" viewBox="0 0 112 117" fill="none" xmlns="http://www.w3.org/2000/svg">
<path d="M1.7907 87V73.92H5.9107C6.88404 73.92 7.7507 74.0467 8.5107 74.3C9.2707 74.5533 9.8707 74.9733 10.3107 75.56C10.7507 76.1467 10.9707 76.9467 10.9707 77.96C10.9707 78.92 10.7507 79.7133 10.3107 80.34C9.8707 80.9667 9.27737 81.4333 8.5307 81.74C7.78404 82.0467 6.93737 82.2 5.9907 82.2H4.1107V87H1.7907ZM4.1107 80.34H5.8107C7.7307 80.34 8.6907 79.5467 8.6907 77.96C8.6907 77.1333 8.43737 76.5667 7.9307 76.26C7.43737 75.94 6.70404 75.78 5.7307 75.78H4.1107V80.34ZM13.3713 87V77.18H15.2713L15.4313 78.92H15.5113C15.858 78.28 16.278 77.7933 16.7713 77.46C17.2647 77.1133 17.7713 76.94 18.2913 76.94C18.758 76.94 19.1313 77.0067 19.4113 77.14L19.0113 79.14C18.838 79.0867 18.678 79.0467 18.5313 79.02C18.3847 78.9933 18.2047 78.98 17.9913 78.98C17.6047 78.98 17.198 79.1333 16.7713 79.44C16.3447 79.7333 15.978 80.2533 15.6713 81V87H13.3713ZM24.797 87.24C23.9836 87.24 23.2236 87.04 22.517 86.64C21.8103 86.2267 21.237 85.64 20.797 84.88C20.357 84.1067 20.137 83.18 20.137 82.1C20.137 81.0067 20.357 80.08 20.797 79.32C21.237 78.5467 21.8103 77.96 22.517 77.56C23.2236 77.1467 23.9836 76.94 24.797 76.94C25.6236 76.94 26.3903 77.1467 27.097 77.56C27.8036 77.96 28.377 78.5467 28.817 79.32C29.257 80.08 29.477 81.0067 29.477 82.1C29.477 83.18 29.257 84.1067 28.817 84.88C28.377 85.64 27.8036 86.2267 27.097 86.64C26.3903 87.04 25.6236 87.24 24.797 87.24ZM24.797 85.36C25.517 85.36 26.0836 85.06 26.497 84.46C26.9103 83.86 27.117 83.0733 27.117 82.1C27.117 81.1133 26.9103 80.32 26.497 79.72C26.0836 79.12 25.517 78.82 24.797 78.82C24.077 78.82 23.5103 79.12 23.097 79.72C22.697 80.32 22.497 81.1133 22.497 82.1C22.497 83.0733 22.697 83.86 23.097 84.46C23.5103 85.06 24.077 85.36 24.797 85.36ZM35.3335 87.24C34.1068 87.24 33.1268 86.7867 32.3935 85.88C31.6602 84.9733 31.2935 83.7133 31.2935 82.1C31.2935 81.0333 31.4868 80.1133 31.8735 79.34C32.2735 78.5667 32.7935 77.9733 33.4335 77.56C34.0735 77.1467 34.7468 76.94 35.4535 76.94C36.0135 76.94 36.4868 77.04 36.8735 77.24C37.2735 77.4267 37.6602 77.6867 38.0335 78.02L37.9535 76.44V72.88H40.2535V87H38.3535L38.1935 85.94H38.1135C37.7535 86.3 37.3335 86.6067 36.8535 86.86C36.3735 87.1133 35.8668 87.24 35.3335 87.24ZM35.8935 85.34C36.6268 85.34 37.3135 84.9733 37.9535 84.24V79.66C37.6202 79.3533 37.2868 79.14 36.9535 79.02C36.6202 78.9 36.2868 78.84 35.9535 78.84C35.3268 78.84 34.7868 79.1267 34.3335 79.7C33.8935 80.26 33.6735 81.0533 33.6735 82.08C33.6735 83.1333 33.8668 83.94 34.2535 84.5C34.6402 85.06 35.1868 85.34 35.8935 85.34ZM46.2426 87.24C45.1892 87.24 44.4226 86.9 43.9426 86.22C43.4626 85.54 43.2226 84.58 43.2226 83.34V77.18H45.5226V83.04C45.5226 83.8533 45.6426 84.4267 45.8826 84.76C46.1226 85.0933 46.5092 85.26 47.0426 85.26C47.4692 85.26 47.8426 85.1533 48.1626 84.94C48.4959 84.7267 48.8492 84.38 49.2226 83.9V77.18H51.5226V87H49.6426L49.4626 85.56H49.4026C48.9759 86.0667 48.5092 86.4733 48.0026 86.78C47.4959 87.0867 46.9092 87.24 46.2426 87.24ZM58.6759 87.24C57.7825 87.24 56.9759 87.04 56.2559 86.64C55.5492 86.2267 54.9825 85.64 54.5559 84.88C54.1425 84.1067 53.9359 83.18 53.9359 82.1C53.9359 81.0067 54.1625 80.08 54.6159 79.32C55.0692 78.5467 55.6692 77.96 56.4159 77.56C57.1759 77.1467 57.9892 76.94 58.8559 76.94C59.4825 76.94 60.0292 77.0467 60.4959 77.26C60.9625 77.4733 61.3759 77.7333 61.7359 78.04L60.6159 79.54C60.3625 79.3133 60.1025 79.14 59.8359 79.02C59.5692 78.8867 59.2825 78.82 58.9759 78.82C58.1892 78.82 57.5425 79.12 57.0359 79.72C56.5425 80.32 56.2959 81.1133 56.2959 82.1C56.2959 83.0733 56.5359 83.86 57.0159 84.46C57.5092 85.06 58.1425 85.36 58.9159 85.36C59.3025 85.36 59.6625 85.28 59.9959 85.12C60.3425 84.9467 60.6559 84.7467 60.9359 84.52L61.8759 86.04C61.4225 86.44 60.9159 86.74 60.3559 86.94C59.7959 87.14 59.2359 87.24 58.6759 87.24ZM67.2188 87.24C66.0855 87.24 65.2788 86.9133 64.7988 86.26C64.3322 85.5933 64.0988 84.7333 64.0988 83.68V79H62.6988V77.28L64.2188 77.18L64.4988 74.5H66.4188V77.18H68.9188V79H66.4188V83.68C66.4188 84.8267 66.8788 85.4 67.7988 85.4C67.9722 85.4 68.1522 85.38 68.3388 85.34C68.5255 85.2867 68.6855 85.2333 68.8188 85.18L69.2188 86.88C68.9522 86.9733 68.6455 87.0533 68.2988 87.12C67.9655 87.2 67.6055 87.24 67.2188 87.24ZM71.1254 87V77.18H73.4254V87H71.1254ZM72.2854 75.46C71.8721 75.46 71.5387 75.34 71.2854 75.1C71.0321 74.86 70.9054 74.54 70.9054 74.14C70.9054 73.7533 71.0321 73.44 71.2854 73.2C71.5387 72.96 71.8721 72.84 72.2854 72.84C72.6987 72.84 73.0321 72.96 73.2854 73.2C73.5387 73.44 73.6654 73.7533 73.6654 74.14C73.6654 74.54 73.5387 74.86 73.2854 75.1C73.0321 75.34 72.6987 75.46 72.2854 75.46ZM78.6998 87L75.2798 77.18H77.6198L79.1798 82.28C79.3131 82.76 79.4464 83.2467 79.5798 83.74C79.7264 84.2333 79.8664 84.7333 79.9998 85.24H80.0798C80.2264 84.7333 80.3664 84.2333 80.4998 83.74C80.6464 83.2467 80.7864 82.76 80.9198 82.28L82.4798 77.18H84.6998L81.3598 87H78.6998ZM86.5421 87V77.18H88.8421V87H86.5421ZM87.7021 75.46C87.2888 75.46 86.9554 75.34 86.7021 75.1C86.4488 74.86 86.3221 74.54 86.3221 74.14C86.3221 73.7533 86.4488 73.44 86.7021 73.2C86.9554 72.96 87.2888 72.84 87.7021 72.84C88.1154 72.84 88.4488 72.96 88.7021 73.2C88.9554 73.44 89.0821 73.7533 89.0821 74.14C89.0821 74.54 88.9554 74.86 88.7021 75.1C88.4488 75.34 88.1154 75.46 87.7021 75.46ZM95.3765 87.24C94.2431 87.24 93.4365 86.9133 92.9565 86.26C92.4898 85.5933 92.2565 84.7333 92.2565 83.68V79H90.8565V77.28L92.3765 77.18L92.6565 74.5H94.5765V77.18H97.0765V79H94.5765V83.68C94.5765 84.8267 95.0365 85.4 95.9565 85.4C96.1298 85.4 96.3098 85.38 96.4965 85.34C96.6831 85.2867 96.8431 85.2333 96.9765 85.18L97.3765 86.88C97.1098 86.9733 96.8031 87.0533 96.4565 87.12C96.1231 87.2 95.7631 87.24 95.3765 87.24ZM99.943 91.04C99.6764 91.04 99.443 91.02 99.243 90.98C99.043 90.94 98.8497 90.8933 98.663 90.84L99.083 89.04C99.1764 89.0667 99.283 89.0933 99.403 89.12C99.5364 89.16 99.663 89.18 99.783 89.18C100.303 89.18 100.716 89.02 101.023 88.7C101.343 88.3933 101.583 87.9933 101.743 87.5L101.923 86.88L98.063 77.18H100.403L102.103 82C102.25 82.4267 102.39 82.88 102.523 83.36C102.67 83.8267 102.816 84.2933 102.963 84.76H103.043C103.163 84.3067 103.283 83.8467 103.403 83.38C103.536 82.9 103.663 82.44 103.783 82L105.263 77.18H107.483L103.923 87.44C103.51 88.5467 103.01 89.42 102.423 90.06C101.836 90.7133 101.01 91.04 99.943 91.04ZM9.79367 112V98.92H12.4137L14.7337 105.32C14.8803 105.733 15.0203 106.16 15.1537 106.6C15.3003 107.027 15.4403 107.453 15.5737 107.88H15.6537C15.8003 107.453 15.9403 107.027 16.0737 106.6C16.207 106.16 16.3403 105.733 16.4737 105.32L18.7337 98.92H21.3737V112H19.2337V106.02C19.2337 105.607 19.247 105.16 19.2737 104.68C19.3137 104.187 19.3537 103.693 19.3937 103.2C19.447 102.707 19.4937 102.26 19.5337 101.86H19.4537L18.3937 104.9L16.2537 110.78H14.8737L12.7137 104.9L11.6737 101.86H11.5937C11.6337 102.26 11.6737 102.707 11.7137 103.2C11.767 103.693 11.807 104.187 11.8337 104.68C11.8737 105.16 11.8937 105.607 11.8937 106.02V112H9.79367ZM28.656 112.24C27.8427 112.24 27.0827 112.04 26.376 111.64C25.6693 111.227 25.096 110.64 24.656 109.88C24.216 109.107 23.996 108.18 23.996 107.1C23.996 106.007 24.216 105.08 24.656 104.32C25.096 103.547 25.6693 102.96 26.376 102.56C27.0827 102.147 27.8427 101.94 28.656 101.94C29.4827 101.94 30.2493 102.147 30.956 102.56C31.6627 102.96 32.236 103.547 32.676 104.32C33.116 105.08 33.336 106.007 33.336 107.1C33.336 108.18 33.116 109.107 32.676 109.88C32.236 110.64 31.6627 111.227 30.956 111.64C30.2493 112.04 29.4827 112.24 28.656 112.24ZM28.656 110.36C29.376 110.36 29.9427 110.06 30.356 109.46C30.7693 108.86 30.976 108.073 30.976 107.1C30.976 106.113 30.7693 105.32 30.356 104.72C29.9427 104.12 29.376 103.82 28.656 103.82C27.936 103.82 27.3693 104.12 26.956 104.72C26.556 105.32 26.356 106.113 26.356 107.1C26.356 108.073 26.556 108.86 26.956 109.46C27.3693 110.06 27.936 110.36 28.656 110.36ZM35.7526 112V102.18H37.6526L37.8126 103.5H37.8926C38.3326 103.073 38.8126 102.707 39.3326 102.4C39.8526 102.093 40.4459 101.94 41.1126 101.94C42.1659 101.94 42.9326 102.28 43.4126 102.96C43.8926 103.64 44.1326 104.6 44.1326 105.84V112H41.8326V106.14C41.8326 105.327 41.7126 104.753 41.4726 104.42C41.2326 104.087 40.8392 103.92 40.2926 103.92C39.8659 103.92 39.4859 104.027 39.1526 104.24C38.8326 104.44 38.4659 104.74 38.0526 105.14V112H35.7526ZM47.084 112V102.18H49.384V112H47.084ZM48.244 100.46C47.8306 100.46 47.4973 100.34 47.244 100.1C46.9906 99.86 46.864 99.54 46.864 99.14C46.864 98.7533 46.9906 98.44 47.244 98.2C47.4973 97.96 47.8306 97.84 48.244 97.84C48.6573 97.84 48.9906 97.96 49.244 98.2C49.4973 98.44 49.624 98.7533 49.624 99.14C49.624 99.54 49.4973 99.86 49.244 100.1C48.9906 100.34 48.6573 100.46 48.244 100.46ZM55.9184 112.24C54.785 112.24 53.9784 111.913 53.4984 111.26C53.0317 110.593 52.7984 109.733 52.7984 108.68V104H51.3984V102.28L52.9184 102.18L53.1984 99.5H55.1184V102.18H57.6184V104H55.1184V108.68C55.1184 109.827 55.5784 110.4 56.4984 110.4C56.6717 110.4 56.8517 110.38 57.0384 110.34C57.225 110.287 57.385 110.233 57.5184 110.18L57.9184 111.88C57.6517 111.973 57.345 112.053 56.9984 112.12C56.665 112.2 56.305 112.24 55.9184 112.24ZM63.5324 112.24C62.7191 112.24 61.9591 112.04 61.2524 111.64C60.5458 111.227 59.9724 110.64 59.5324 109.88C59.0924 109.107 58.8724 108.18 58.8724 107.1C58.8724 106.007 59.0924 105.08 59.5324 104.32C59.9724 103.547 60.5458 102.96 61.2524 102.56C61.9591 102.147 62.7191 101.94 63.5324 101.94C64.3591 101.94 65.1258 102.147 65.8324 102.56C66.5391 102.96 67.1124 103.547 67.5524 104.32C67.9924 105.08 68.2124 106.007 68.2124 107.1C68.2124 108.18 67.9924 109.107 67.5524 109.88C67.1124 110.64 66.5391 111.227 65.8324 111.64C65.1258 112.04 64.3591 112.24 63.5324 112.24ZM63.5324 110.36C64.2524 110.36 64.8191 110.06 65.2324 109.46C65.6458 108.86 65.8524 108.073 65.8524 107.1C65.8524 106.113 65.6458 105.32 65.2324 104.72C64.8191 104.12 64.2524 103.82 63.5324 103.82C62.8124 103.82 62.2458 104.12 61.8324 104.72C61.4324 105.32 61.2324 106.113 61.2324 107.1C61.2324 108.073 61.4324 108.86 61.8324 109.46C62.2458 110.06 62.8124 110.36 63.5324 110.36ZM70.629 112V102.18H72.529L72.689 103.92H72.769C73.1157 103.28 73.5357 102.793 74.029 102.46C74.5223 102.113 75.029 101.94 75.549 101.94C76.0157 101.94 76.389 102.007 76.669 102.14L76.269 104.14C76.0957 104.087 75.9357 104.047 75.789 104.02C75.6423 103.993 75.4623 103.98 75.249 103.98C74.8623 103.98 74.4557 104.133 74.029 104.44C73.6023 104.733 73.2357 105.253 72.929 106V112H70.629ZM78.2299 112V102.18H80.5299V112H78.2299ZM79.3899 100.46C78.9766 100.46 78.6433 100.34 78.3899 100.1C78.1366 99.86 78.0099 99.54 78.0099 99.14C78.0099 98.7533 78.1366 98.44 78.3899 98.2C78.6433 97.96 78.9766 97.84 79.3899 97.84C79.8033 97.84 80.1366 97.96 80.3899 98.2C80.6433 98.44 80.7699 98.7533 80.7699 99.14C80.7699 99.54 80.6433 99.86 80.3899 100.1C80.1366 100.34 79.8033 100.46 79.3899 100.46ZM83.6043 112V102.18H85.5043L85.6643 103.5H85.7443C86.1843 103.073 86.6643 102.707 87.1843 102.4C87.7043 102.093 88.2976 101.94 88.9643 101.94C90.0176 101.94 90.7843 102.28 91.2643 102.96C91.7443 103.64 91.9843 104.6 91.9843 105.84V112H89.6843V106.14C89.6843 105.327 89.5643 104.753 89.3243 104.42C89.0843 104.087 88.691 103.92 88.1443 103.92C87.7176 103.92 87.3376 104.027 87.0043 104.24C86.6843 104.44 86.3176 104.74 85.9043 105.14V112H83.6043ZM98.3557 116.34C97.5824 116.34 96.8824 116.247 96.2557 116.06C95.6424 115.873 95.1557 115.587 94.7957 115.2C94.449 114.827 94.2757 114.353 94.2757 113.78C94.2757 112.967 94.7424 112.267 95.6757 111.68V111.6C95.4224 111.44 95.209 111.227 95.0357 110.96C94.8757 110.693 94.7957 110.36 94.7957 109.96C94.7957 109.573 94.9024 109.227 95.1157 108.92C95.3424 108.6 95.5957 108.34 95.8757 108.14V108.06C95.5424 107.807 95.2424 107.453 94.9757 107C94.7224 106.547 94.5957 106.033 94.5957 105.46C94.5957 104.7 94.7757 104.06 95.1357 103.54C95.4957 103.02 95.969 102.627 96.5557 102.36C97.1557 102.08 97.7957 101.94 98.4757 101.94C98.7424 101.94 98.9957 101.967 99.2357 102.02C99.489 102.06 99.7157 102.113 99.9157 102.18H103.436V103.88H101.636C101.796 104.067 101.929 104.307 102.036 104.6C102.142 104.88 102.196 105.193 102.196 105.54C102.196 106.26 102.029 106.873 101.696 107.38C101.362 107.873 100.916 108.247 100.356 108.5C99.7957 108.753 99.169 108.88 98.4757 108.88C98.2624 108.88 98.0424 108.86 97.8157 108.82C97.589 108.78 97.3624 108.713 97.1357 108.62C96.989 108.753 96.869 108.887 96.7757 109.02C96.6957 109.153 96.6557 109.333 96.6557 109.56C96.6557 109.84 96.769 110.06 96.9957 110.22C97.2357 110.38 97.6557 110.46 98.2557 110.46H99.9957C101.182 110.46 102.076 110.653 102.676 111.04C103.289 111.413 103.596 112.027 103.596 112.88C103.596 113.52 103.382 114.1 102.956 114.62C102.529 115.153 101.922 115.573 101.136 115.88C100.349 116.187 99.4224 116.34 98.3557 116.34ZM98.4757 107.44C98.9424 107.44 99.3424 107.267 99.6757 106.92C100.009 106.573 100.176 106.087 100.176 105.46C100.176 104.847 100.009 104.373 99.6757 104.04C99.3557 103.693 98.9557 103.52 98.4757 103.52C97.9957 103.52 97.589 103.687 97.2557 104.02C96.9224 104.353 96.7557 104.833 96.7557 105.46C96.7557 106.087 96.9224 106.573 97.2557 106.92C97.589 107.267 97.9957 107.44 98.4757 107.44ZM98.7157 114.84C99.5024 114.84 100.142 114.68 100.636 114.36C101.129 114.04 101.376 113.673 101.376 113.26C101.376 112.873 101.222 112.613 100.916 112.48C100.622 112.347 100.196 112.28 99.6357 112.28H98.2957C97.7624 112.28 97.3157 112.233 96.9557 112.14C96.449 112.527 96.1957 112.96 96.1957 113.44C96.1957 113.88 96.4224 114.22 96.8757 114.46C97.329 114.713 97.9424 114.84 98.7157 114.84Z" fill="white"/>
<g clip-path="url(#clip0_2114_14)">
<path d="M54.3558 26.4654C59.3948 26.4654 63.4798 22.3805 63.4798 17.3414C63.4798 12.3024 59.3948 8.21741 54.3558 8.21741C49.3168 8.21741 45.2318 12.3024 45.2318 17.3414C45.2318 22.3805 49.3168 26.4654 54.3558 26.4654Z" stroke="#2ECD6F" stroke-width="2.34783" stroke-linecap="round" stroke-linejoin="round"/>
<path d="M38.3895 42.4313C38.3895 33.613 45.5382 26.4643 54.3565 26.4643C58.086 26.4643 61.5168 27.7431 64.2347 29.8858" stroke="#2ECD6F" stroke-width="2.34783" stroke-linecap="round" stroke-linejoin="round"/>
<path d="M61.0159 41.4813L66.3382 46.8036L79.6441 33.4978" stroke="#2ECD6F" stroke-width="2.34783" stroke-linecap="round" stroke-linejoin="round"/>
</g>
<defs>
<clipPath id="clip0_2114_14">
<rect width="54" height="54" fill="white" transform="translate(29)"/>
</clipPath>
</defs>
</svg>
