<svg width="114" height="117" viewBox="0 0 114 117" fill="none" xmlns="http://www.w3.org/2000/svg">
<path d="M39.5552 87V75.88H35.7752V73.92H45.6552V75.88H41.8752V87H39.5552ZM48.7859 87.24C47.9326 87.24 47.2326 86.9733 46.6859 86.44C46.1526 85.9067 45.8859 85.2133 45.8859 84.36C45.8859 83.3067 46.3459 82.4933 47.2659 81.92C48.1859 81.3333 49.6526 80.9333 51.6659 80.72C51.6526 80.2 51.5126 79.7533 51.2459 79.38C50.9926 78.9933 50.5326 78.8 49.8659 78.8C49.3859 78.8 48.9126 78.8933 48.4459 79.08C47.9926 79.2667 47.5459 79.4933 47.1059 79.76L46.2659 78.22C46.8126 77.8733 47.4259 77.5733 48.1059 77.32C48.7993 77.0667 49.5326 76.94 50.3059 76.94C51.5326 76.94 52.4459 77.3067 53.0459 78.04C53.6593 78.76 53.9659 79.8067 53.9659 81.18V87H52.0659L51.9059 85.92H51.8259C51.3859 86.2933 50.9126 86.6067 50.4059 86.86C49.9126 87.1133 49.3726 87.24 48.7859 87.24ZM49.5259 85.44C49.9259 85.44 50.2859 85.3467 50.6059 85.16C50.9393 84.96 51.2926 84.6933 51.6659 84.36V82.16C50.3326 82.3333 49.4059 82.5933 48.8859 82.94C48.3659 83.2733 48.1059 83.6867 48.1059 84.18C48.1059 84.62 48.2393 84.94 48.5059 85.14C48.7726 85.34 49.1126 85.44 49.5259 85.44ZM59.5984 87.24C58.9318 87.24 58.2651 87.1133 57.5984 86.86C56.9318 86.5933 56.3584 86.2667 55.8784 85.88L56.9584 84.4C57.3984 84.7333 57.8384 85 58.2784 85.2C58.7184 85.4 59.1851 85.5 59.6784 85.5C60.2118 85.5 60.6051 85.3867 60.8584 85.16C61.1118 84.9333 61.2384 84.6533 61.2384 84.32C61.2384 84.04 61.1318 83.8133 60.9184 83.64C60.7184 83.4533 60.4584 83.2933 60.1384 83.16C59.8184 83.0133 59.4851 82.8733 59.1384 82.74C58.7118 82.58 58.2851 82.3867 57.8584 82.16C57.4451 81.92 57.1051 81.62 56.8384 81.26C56.5718 80.8867 56.4384 80.4267 56.4384 79.88C56.4384 79.0133 56.7584 78.3067 57.3984 77.76C58.0384 77.2133 58.9051 76.94 59.9984 76.94C60.6918 76.94 61.3118 77.06 61.8584 77.3C62.4051 77.54 62.8784 77.8133 63.2784 78.12L62.2184 79.52C61.8718 79.2667 61.5184 79.0667 61.1584 78.92C60.8118 78.76 60.4451 78.68 60.0584 78.68C59.5651 78.68 59.1984 78.7867 58.9584 79C58.7184 79.2 58.5984 79.4533 58.5984 79.76C58.5984 80.1467 58.7984 80.44 59.1984 80.64C59.5984 80.84 60.0651 81.0333 60.5984 81.22C61.0518 81.38 61.4918 81.58 61.9184 81.82C62.3451 82.0467 62.6984 82.3467 62.9784 82.72C63.2718 83.0933 63.4184 83.5867 63.4184 84.2C63.4184 85.04 63.0918 85.76 62.4384 86.36C61.7851 86.9467 60.8384 87.24 59.5984 87.24ZM65.6117 87V72.88H67.8717V81.7H67.9317L71.5717 77.18H74.0917L70.7317 81.18L74.4317 87H71.9317L69.4117 82.74L67.8717 84.5V87H65.6117ZM1.85812 112V98.92H4.47812L6.79812 105.32C6.94479 105.733 7.08479 106.16 7.21812 106.6C7.36479 107.027 7.50479 107.453 7.63812 107.88H7.71812C7.86479 107.453 8.00479 107.027 8.13812 106.6C8.27146 106.16 8.40479 105.733 8.53812 105.32L10.7981 98.92H13.4381V112H11.2981V106.02C11.2981 105.607 11.3115 105.16 11.3381 104.68C11.3781 104.187 11.4181 103.693 11.4581 103.2C11.5115 102.707 11.5581 102.26 11.5981 101.86H11.5181L10.4581 104.9L8.31812 110.78H6.93812L4.77812 104.9L3.73812 101.86H3.65812C3.69812 102.26 3.73812 102.707 3.77812 103.2C3.83146 103.693 3.87146 104.187 3.89812 104.68C3.93812 105.16 3.95812 105.607 3.95812 106.02V112H1.85812ZM19.0805 112.24C18.2271 112.24 17.5271 111.973 16.9805 111.44C16.4471 110.907 16.1805 110.213 16.1805 109.36C16.1805 108.307 16.6405 107.493 17.5605 106.92C18.4805 106.333 19.9471 105.933 21.9605 105.72C21.9471 105.2 21.8071 104.753 21.5405 104.38C21.2871 103.993 20.8271 103.8 20.1605 103.8C19.6805 103.8 19.2071 103.893 18.7405 104.08C18.2871 104.267 17.8405 104.493 17.4005 104.76L16.5605 103.22C17.1071 102.873 17.7205 102.573 18.4005 102.32C19.0938 102.067 19.8271 101.94 20.6005 101.94C21.8271 101.94 22.7405 102.307 23.3405 103.04C23.9538 103.76 24.2605 104.807 24.2605 106.18V112H22.3605L22.2005 110.92H22.1205C21.6805 111.293 21.2071 111.607 20.7005 111.86C20.2071 112.113 19.6671 112.24 19.0805 112.24ZM19.8205 110.44C20.2205 110.44 20.5805 110.347 20.9005 110.16C21.2338 109.96 21.5871 109.693 21.9605 109.36V107.16C20.6271 107.333 19.7005 107.593 19.1805 107.94C18.6605 108.273 18.4005 108.687 18.4005 109.18C18.4005 109.62 18.5338 109.94 18.8005 110.14C19.0671 110.34 19.4071 110.44 19.8205 110.44ZM27.153 112V102.18H29.053L29.213 103.5H29.293C29.733 103.073 30.213 102.707 30.733 102.4C31.253 102.093 31.8463 101.94 32.513 101.94C33.5663 101.94 34.333 102.28 34.813 102.96C35.293 103.64 35.533 104.6 35.533 105.84V112H33.233V106.14C33.233 105.327 33.113 104.753 32.873 104.42C32.633 104.087 32.2396 103.92 31.693 103.92C31.2663 103.92 30.8863 104.027 30.553 104.24C30.233 104.44 29.8663 104.74 29.453 105.14V112H27.153ZM40.8644 112.24C40.011 112.24 39.311 111.973 38.7644 111.44C38.231 110.907 37.9644 110.213 37.9644 109.36C37.9644 108.307 38.4244 107.493 39.3444 106.92C40.2644 106.333 41.731 105.933 43.7444 105.72C43.731 105.2 43.591 104.753 43.3244 104.38C43.071 103.993 42.611 103.8 41.9444 103.8C41.4644 103.8 40.991 103.893 40.5244 104.08C40.071 104.267 39.6244 104.493 39.1844 104.76L38.3444 103.22C38.891 102.873 39.5044 102.573 40.1844 102.32C40.8777 102.067 41.611 101.94 42.3844 101.94C43.611 101.94 44.5244 102.307 45.1244 103.04C45.7377 103.76 46.0444 104.807 46.0444 106.18V112H44.1444L43.9844 110.92H43.9044C43.4644 111.293 42.991 111.607 42.4844 111.86C41.991 112.113 41.451 112.24 40.8644 112.24ZM41.6044 110.44C42.0044 110.44 42.3644 110.347 42.6844 110.16C43.0177 109.96 43.371 109.693 43.7444 109.36V107.16C42.411 107.333 41.4844 107.593 40.9644 107.94C40.4444 108.273 40.1844 108.687 40.1844 109.18C40.1844 109.62 40.3177 109.94 40.5844 110.14C40.851 110.34 41.191 110.44 41.6044 110.44ZM52.3569 116.34C51.5835 116.34 50.8835 116.247 50.2569 116.06C49.6435 115.873 49.1569 115.587 48.7969 115.2C48.4502 114.827 48.2769 114.353 48.2769 113.78C48.2769 112.967 48.7435 112.267 49.6769 111.68V111.6C49.4235 111.44 49.2102 111.227 49.0369 110.96C48.8769 110.693 48.7969 110.36 48.7969 109.96C48.7969 109.573 48.9035 109.227 49.1169 108.92C49.3435 108.6 49.5969 108.34 49.8769 108.14V108.06C49.5435 107.807 49.2435 107.453 48.9769 107C48.7235 106.547 48.5969 106.033 48.5969 105.46C48.5969 104.7 48.7769 104.06 49.1369 103.54C49.4969 103.02 49.9702 102.627 50.5569 102.36C51.1569 102.08 51.7969 101.94 52.4769 101.94C52.7435 101.94 52.9969 101.967 53.2369 102.02C53.4902 102.06 53.7169 102.113 53.9169 102.18H57.4369V103.88H55.6369C55.7969 104.067 55.9302 104.307 56.0369 104.6C56.1435 104.88 56.1969 105.193 56.1969 105.54C56.1969 106.26 56.0302 106.873 55.6969 107.38C55.3635 107.873 54.9169 108.247 54.3569 108.5C53.7969 108.753 53.1702 108.88 52.4769 108.88C52.2635 108.88 52.0435 108.86 51.8169 108.82C51.5902 108.78 51.3635 108.713 51.1369 108.62C50.9902 108.753 50.8702 108.887 50.7769 109.02C50.6969 109.153 50.6569 109.333 50.6569 109.56C50.6569 109.84 50.7702 110.06 50.9969 110.22C51.2369 110.38 51.6569 110.46 52.2569 110.46H53.9969C55.1835 110.46 56.0769 110.653 56.6769 111.04C57.2902 111.413 57.5969 112.027 57.5969 112.88C57.5969 113.52 57.3835 114.1 56.9569 114.62C56.5302 115.153 55.9235 115.573 55.1369 115.88C54.3502 116.187 53.4235 116.34 52.3569 116.34ZM52.4769 107.44C52.9435 107.44 53.3435 107.267 53.6769 106.92C54.0102 106.573 54.1769 106.087 54.1769 105.46C54.1769 104.847 54.0102 104.373 53.6769 104.04C53.3569 103.693 52.9569 103.52 52.4769 103.52C51.9969 103.52 51.5902 103.687 51.2569 104.02C50.9235 104.353 50.7569 104.833 50.7569 105.46C50.7569 106.087 50.9235 106.573 51.2569 106.92C51.5902 107.267 51.9969 107.44 52.4769 107.44ZM52.7169 114.84C53.5035 114.84 54.1435 114.68 54.6369 114.36C55.1302 114.04 55.3769 113.673 55.3769 113.26C55.3769 112.873 55.2235 112.613 54.9169 112.48C54.6235 112.347 54.1969 112.28 53.6369 112.28H52.2969C51.7635 112.28 51.3169 112.233 50.9569 112.14C50.4502 112.527 50.1969 112.96 50.1969 113.44C50.1969 113.88 50.4235 114.22 50.8769 114.46C51.3302 114.713 51.9435 114.84 52.7169 114.84ZM63.355 112.24C62.4483 112.24 61.6283 112.04 60.895 111.64C60.1617 111.227 59.5817 110.64 59.155 109.88C58.7283 109.107 58.515 108.18 58.515 107.1C58.515 106.033 58.7283 105.113 59.155 104.34C59.595 103.567 60.1617 102.973 60.855 102.56C61.5483 102.147 62.275 101.94 63.035 101.94C63.9283 101.94 64.675 102.14 65.275 102.54C65.875 102.927 66.3283 103.473 66.635 104.18C66.9417 104.873 67.095 105.68 67.095 106.6C67.095 107.08 67.0617 107.453 66.995 107.72H60.755C60.8617 108.587 61.175 109.26 61.695 109.74C62.215 110.22 62.8683 110.46 63.655 110.46C64.0817 110.46 64.475 110.4 64.835 110.28C65.2083 110.147 65.575 109.967 65.935 109.74L66.715 111.18C66.2483 111.487 65.7283 111.74 65.155 111.94C64.5817 112.14 63.9817 112.24 63.355 112.24ZM60.735 106.16H65.095C65.095 105.4 64.9283 104.807 64.595 104.38C64.2617 103.94 63.7617 103.72 63.095 103.72C62.5217 103.72 62.0083 103.933 61.555 104.36C61.115 104.773 60.8417 105.373 60.735 106.16ZM69.4317 112V102.18H71.3317L71.4917 103.52H71.5717C71.985 103.08 72.4317 102.707 72.9117 102.4C73.405 102.093 73.9584 101.94 74.5717 101.94C75.2917 101.94 75.865 102.1 76.2917 102.42C76.7317 102.727 77.065 103.153 77.2917 103.7C77.7584 103.193 78.245 102.773 78.7517 102.44C79.2717 102.107 79.8384 101.94 80.4517 101.94C81.4917 101.94 82.2584 102.28 82.7517 102.96C83.245 103.64 83.4917 104.6 83.4917 105.84V112H81.1717V106.14C81.1717 105.327 81.045 104.753 80.7917 104.42C80.5517 104.087 80.1784 103.92 79.6717 103.92C79.0584 103.92 78.3717 104.327 77.6117 105.14V112H75.3117V106.14C75.3117 105.327 75.185 104.753 74.9317 104.42C74.6917 104.087 74.3117 103.92 73.7917 103.92C73.1784 103.92 72.4917 104.327 71.7317 105.14V112H69.4317ZM90.6272 112.24C89.7205 112.24 88.9005 112.04 88.1672 111.64C87.4339 111.227 86.8539 110.64 86.4272 109.88C86.0005 109.107 85.7872 108.18 85.7872 107.1C85.7872 106.033 86.0005 105.113 86.4272 104.34C86.8672 103.567 87.4339 102.973 88.1272 102.56C88.8205 102.147 89.5472 101.94 90.3072 101.94C91.2005 101.94 91.9472 102.14 92.5472 102.54C93.1472 102.927 93.6005 103.473 93.9072 104.18C94.2139 104.873 94.3672 105.68 94.3672 106.6C94.3672 107.08 94.3339 107.453 94.2672 107.72H88.0272C88.1339 108.587 88.4472 109.26 88.9672 109.74C89.4872 110.22 90.1405 110.46 90.9272 110.46C91.3539 110.46 91.7472 110.4 92.1072 110.28C92.4805 110.147 92.8472 109.967 93.2072 109.74L93.9872 111.18C93.5205 111.487 93.0005 111.74 92.4272 111.94C91.8539 112.14 91.2539 112.24 90.6272 112.24ZM88.0072 106.16H92.3672C92.3672 105.4 92.2005 104.807 91.8672 104.38C91.5339 103.94 91.0339 103.72 90.3672 103.72C89.7939 103.72 89.2805 103.933 88.8272 104.36C88.3872 104.773 88.1139 105.373 88.0072 106.16ZM96.7039 112V102.18H98.6039L98.7639 103.5H98.8439C99.2839 103.073 99.7639 102.707 100.284 102.4C100.804 102.093 101.397 101.94 102.064 101.94C103.117 101.94 103.884 102.28 104.364 102.96C104.844 103.64 105.084 104.6 105.084 105.84V112H102.784V106.14C102.784 105.327 102.664 104.753 102.424 104.42C102.184 104.087 101.791 103.92 101.244 103.92C100.817 103.92 100.437 104.027 100.104 104.24C99.7839 104.44 99.4172 104.74 99.0039 105.14V112H96.7039ZM111.495 112.24C110.362 112.24 109.555 111.913 109.075 111.26C108.609 110.593 108.375 109.733 108.375 108.68V104H106.975V102.28L108.495 102.18L108.775 99.5H110.695V102.18H113.195V104H110.695V108.68C110.695 109.827 111.155 110.4 112.075 110.4C112.249 110.4 112.429 110.38 112.615 110.34C112.802 110.287 112.962 110.233 113.095 110.18L113.495 111.88C113.229 111.973 112.922 112.053 112.575 112.12C112.242 112.2 111.882 112.24 111.495 112.24Z" fill="white"/>
<path d="M53.1217 9.39169H45.5345C43.4393 9.39169 41.7409 11.0901 41.7409 13.1853V41.6373C41.7409 43.7325 43.4393 45.4309 45.5345 45.4309H68.2961C70.3913 45.4309 72.0897 43.7325 72.0897 41.6373V13.1853C72.0897 11.0901 70.3913 9.39169 68.2961 9.39169H61.6573H53.1217Z" stroke="#42A9F0" stroke-width="2.34783" stroke-linecap="round" stroke-linejoin="round"/>
<path d="M51.1008 21.0988H64.0139" stroke="#42A9F0" stroke-width="2.11304" stroke-linecap="round" stroke-linejoin="round"/>
<path d="M51.1008 27.5543H64.0139" stroke="#42A9F0" stroke-width="2.11304" stroke-linecap="round" stroke-linejoin="round"/>
<path d="M51.1008 34.0118H64.0139" stroke="#42A9F0" stroke-width="2.11304" stroke-linecap="round" stroke-linejoin="round"/>
</svg>
