<svg width="161" height="117" viewBox="0 0 161 117" fill="none" xmlns="http://www.w3.org/2000/svg">
<path d="M21.5118 87V76.44H17.9318V73.96H28.0518V76.44H24.4718V87H21.5118ZM29.9851 87V77.08H32.9251V87H29.9851ZM31.4451 75.62C30.9517 75.62 30.5517 75.48 30.2451 75.2C29.9384 74.92 29.7851 74.5467 29.7851 74.08C29.7851 73.6133 29.9384 73.24 30.2451 72.96C30.5517 72.68 30.9517 72.54 31.4451 72.54C31.9384 72.54 32.3384 72.68 32.6451 72.96C32.9517 73.24 33.1051 73.6133 33.1051 74.08C33.1051 74.5467 32.9517 74.92 32.6451 75.2C32.3384 75.48 31.9384 75.62 31.4451 75.62ZM35.6524 87V77.08H38.0524L38.2524 78.36H38.3324C38.7458 77.9467 39.1858 77.5933 39.6524 77.3C40.1191 76.9933 40.6791 76.84 41.3324 76.84C42.0391 76.84 42.6058 76.9867 43.0324 77.28C43.4724 77.56 43.8191 77.9667 44.0724 78.5C44.5124 78.0467 44.9791 77.66 45.4724 77.34C45.9658 77.0067 46.5391 76.84 47.1924 76.84C48.2591 76.84 49.0391 77.2 49.5324 77.92C50.0391 78.6267 50.2924 79.6 50.2924 80.84V87H47.3524V81.22C47.3524 80.5 47.2524 80.0067 47.0524 79.74C46.8658 79.4733 46.5591 79.34 46.1324 79.34C45.6391 79.34 45.0724 79.66 44.4324 80.3V87H41.4924V81.22C41.4924 80.5 41.3924 80.0067 41.1924 79.74C41.0058 79.4733 40.6991 79.34 40.2724 79.34C39.7791 79.34 39.2191 79.66 38.5924 80.3V87H35.6524ZM57.3809 87.24C56.4342 87.24 55.5809 87.0333 54.8209 86.62C54.0609 86.2067 53.4609 85.6133 53.0209 84.84C52.5809 84.0667 52.3609 83.1333 52.3609 82.04C52.3609 80.96 52.5809 80.0333 53.0209 79.26C53.4742 78.4867 54.0609 77.8933 54.7809 77.48C55.5009 77.0533 56.2542 76.84 57.0409 76.84C57.9875 76.84 58.7675 77.0533 59.3809 77.48C60.0075 77.8933 60.4742 78.46 60.7809 79.18C61.1009 79.8867 61.2609 80.6933 61.2609 81.6C61.2609 81.8533 61.2475 82.1067 61.2209 82.36C61.1942 82.6 61.1675 82.78 61.1409 82.9H55.2009C55.3342 83.62 55.6342 84.1533 56.1009 84.5C56.5675 84.8333 57.1275 85 57.7809 85C58.4875 85 59.2009 84.78 59.9209 84.34L60.9009 86.12C60.3942 86.4667 59.8275 86.74 59.2009 86.94C58.5742 87.14 57.9675 87.24 57.3809 87.24ZM55.1809 80.96H58.7609C58.7609 80.4133 58.6275 79.9667 58.3609 79.62C58.1075 79.26 57.6875 79.08 57.1009 79.08C56.6475 79.08 56.2409 79.24 55.8809 79.56C55.5209 79.8667 55.2875 80.3333 55.1809 80.96ZM70.3563 87V76.44H66.7763V73.96H76.8963V76.44H73.3163V87H70.3563ZM77.9898 87V77.08H80.3898L80.5898 78.82H80.6698C81.0298 78.1533 81.4631 77.66 81.9698 77.34C82.4764 77.0067 82.9831 76.84 83.4898 76.84C83.7698 76.84 84.0031 76.86 84.1898 76.9C84.3764 76.9267 84.5364 76.9733 84.6698 77.04L84.1898 79.58C84.0164 79.5267 83.8431 79.4867 83.6698 79.46C83.5098 79.4333 83.3231 79.42 83.1098 79.42C82.7364 79.42 82.3431 79.56 81.9298 79.84C81.5298 80.1067 81.1964 80.5733 80.9298 81.24V87H77.9898ZM88.0321 87.24C87.1255 87.24 86.4055 86.9533 85.8721 86.38C85.3388 85.7933 85.0721 85.08 85.0721 84.24C85.0721 83.2 85.5121 82.3867 86.3921 81.8C87.2721 81.2133 88.6921 80.82 90.6521 80.62C90.6255 80.18 90.4921 79.8333 90.2521 79.58C90.0255 79.3133 89.6388 79.18 89.0921 79.18C88.6788 79.18 88.2588 79.26 87.8321 79.42C87.4055 79.58 86.9521 79.8 86.4721 80.08L85.4121 78.14C86.0388 77.7533 86.7055 77.44 87.4121 77.2C88.1321 76.96 88.8788 76.84 89.6521 76.84C90.9188 76.84 91.8921 77.2067 92.5721 77.94C93.2521 78.6733 93.5921 79.8 93.5921 81.32V87H91.1921L90.9921 85.98H90.9121C90.4988 86.3533 90.0521 86.66 89.5721 86.9C89.1055 87.1267 88.5921 87.24 88.0321 87.24ZM89.0321 84.96C89.3655 84.96 89.6521 84.8867 89.8921 84.74C90.1455 84.58 90.3988 84.3733 90.6521 84.12V82.38C89.6121 82.5133 88.8921 82.7267 88.4921 83.02C88.0921 83.3 87.8921 83.6333 87.8921 84.02C87.8921 84.34 87.9921 84.58 88.1921 84.74C88.4055 84.8867 88.6855 84.96 89.0321 84.96ZM100.539 87.24C99.619 87.24 98.7857 87.04 98.039 86.64C97.3057 86.2267 96.719 85.6333 96.279 84.86C95.8523 84.0733 95.639 83.1333 95.639 82.04C95.639 80.9333 95.879 79.9933 96.359 79.22C96.839 78.4467 97.4723 77.86 98.259 77.46C99.0457 77.0467 99.8923 76.84 100.799 76.84C101.412 76.84 101.952 76.94 102.419 77.14C102.899 77.34 103.326 77.5933 103.699 77.9L102.319 79.8C101.852 79.4133 101.406 79.22 100.979 79.22C100.272 79.22 99.7057 79.4733 99.279 79.98C98.8657 80.4867 98.659 81.1733 98.659 82.04C98.659 82.8933 98.8657 83.58 99.279 84.1C99.7057 84.6067 100.239 84.86 100.879 84.86C101.199 84.86 101.512 84.7933 101.819 84.66C102.126 84.5133 102.406 84.34 102.659 84.14L103.819 86.06C103.326 86.4867 102.792 86.7933 102.219 86.98C101.646 87.1533 101.086 87.24 100.539 87.24ZM105.695 87V72.98H108.555V81.02H108.635L111.775 77.08H114.975L111.495 81.16L115.235 87H112.055L109.815 83.14L108.555 84.56V87H105.695ZM116.792 87V77.08H119.732V87H116.792ZM118.252 75.62C117.759 75.62 117.359 75.48 117.052 75.2C116.745 74.92 116.592 74.5467 116.592 74.08C116.592 73.6133 116.745 73.24 117.052 72.96C117.359 72.68 117.759 72.54 118.252 72.54C118.745 72.54 119.145 72.68 119.452 72.96C119.759 73.24 119.912 73.6133 119.912 74.08C119.912 74.5467 119.759 74.92 119.452 75.2C119.145 75.48 118.745 75.62 118.252 75.62ZM122.459 87V77.08H124.859L125.059 78.34H125.139C125.566 77.94 126.033 77.5933 126.539 77.3C127.059 76.9933 127.653 76.84 128.319 76.84C129.399 76.84 130.179 77.2 130.659 77.92C131.153 78.6267 131.399 79.6 131.399 80.84V87H128.459V81.22C128.459 80.5 128.359 80.0067 128.159 79.74C127.973 79.4733 127.666 79.34 127.239 79.34C126.866 79.34 126.546 79.4267 126.279 79.6C126.013 79.76 125.719 79.9933 125.399 80.3V87H122.459ZM137.585 91.22C136.811 91.22 136.111 91.1333 135.485 90.96C134.858 90.7867 134.358 90.5133 133.985 90.14C133.611 89.7667 133.425 89.2867 133.425 88.7C133.425 87.9 133.898 87.2333 134.845 86.7V86.62C134.591 86.4467 134.371 86.2267 134.185 85.96C134.011 85.6933 133.925 85.3533 133.925 84.94C133.925 84.58 134.031 84.2333 134.245 83.9C134.458 83.5667 134.725 83.2933 135.045 83.08V83C134.698 82.76 134.385 82.4133 134.105 81.96C133.838 81.5067 133.705 80.9933 133.705 80.42C133.705 79.62 133.898 78.96 134.285 78.44C134.671 77.9067 135.178 77.5067 135.805 77.24C136.431 76.9733 137.098 76.84 137.805 76.84C138.391 76.84 138.905 76.92 139.345 77.08H142.965V79.22H141.385C141.478 79.3667 141.551 79.5533 141.605 79.78C141.671 80.0067 141.705 80.2533 141.705 80.52C141.705 81.28 141.531 81.9067 141.185 82.4C140.838 82.8933 140.371 83.26 139.785 83.5C139.198 83.74 138.538 83.86 137.805 83.86C137.418 83.86 137.018 83.7933 136.605 83.66C136.365 83.86 136.245 84.1067 136.245 84.4C136.245 84.6533 136.358 84.84 136.585 84.96C136.811 85.08 137.198 85.14 137.745 85.14H139.345C140.571 85.14 141.505 85.34 142.145 85.74C142.798 86.1267 143.125 86.7667 143.125 87.66C143.125 88.34 142.898 88.9467 142.445 89.48C141.991 90.0267 141.351 90.4533 140.525 90.76C139.698 91.0667 138.718 91.22 137.585 91.22ZM137.805 82.08C138.191 82.08 138.511 81.94 138.765 81.66C139.031 81.38 139.165 80.9667 139.165 80.42C139.165 79.9 139.031 79.5067 138.765 79.24C138.511 78.96 138.191 78.82 137.805 78.82C137.418 78.82 137.091 78.9533 136.825 79.22C136.571 79.4867 136.445 79.8867 136.445 80.42C136.445 80.9667 136.571 81.38 136.825 81.66C137.091 81.94 137.418 82.08 137.805 82.08ZM138.045 89.38C138.711 89.38 139.258 89.26 139.685 89.02C140.111 88.78 140.325 88.4933 140.325 88.16C140.325 87.8533 140.191 87.6467 139.925 87.54C139.671 87.4333 139.298 87.38 138.805 87.38H137.785C137.451 87.38 137.171 87.3667 136.945 87.34C136.731 87.3267 136.545 87.3 136.385 87.26C136.025 87.58 135.845 87.9067 135.845 88.24C135.845 88.6133 136.045 88.8933 136.445 89.08C136.858 89.28 137.391 89.38 138.045 89.38ZM6.56039 112L4.08039 102.08H7.00039L7.96039 106.68C8.04039 107.173 8.11372 107.66 8.18039 108.14C8.24705 108.62 8.32039 109.113 8.40039 109.62H8.48039C8.57372 109.113 8.66039 108.613 8.74039 108.12C8.83372 107.627 8.94039 107.147 9.06039 106.68L10.1604 102.08H12.7004L13.8204 106.68C13.9404 107.173 14.0471 107.66 14.1404 108.14C14.2471 108.62 14.3471 109.113 14.4404 109.62H14.5204C14.6137 109.113 14.6871 108.62 14.7404 108.14C14.8071 107.66 14.8871 107.173 14.9804 106.68L15.9204 102.08H18.6404L16.2604 112H12.8204L11.9204 108.04C11.8271 107.573 11.7337 107.107 11.6404 106.64C11.5604 106.173 11.4737 105.673 11.3804 105.14H11.3004C11.2071 105.673 11.1204 106.173 11.0404 106.64C10.9737 107.107 10.8937 107.573 10.8004 108.04L9.92039 112H6.56039ZM20.5677 112V102.08H23.5077V112H20.5677ZM22.0277 100.62C21.5344 100.62 21.1344 100.48 20.8277 100.2C20.5211 99.92 20.3677 99.5467 20.3677 99.08C20.3677 98.6133 20.5211 98.24 20.8277 97.96C21.1344 97.68 21.5344 97.54 22.0277 97.54C22.5211 97.54 22.9211 97.68 23.2277 97.96C23.5344 98.24 23.6877 98.6133 23.6877 99.08C23.6877 99.5467 23.5344 99.92 23.2277 100.2C22.9211 100.48 22.5211 100.62 22.0277 100.62ZM30.0551 112.24C28.8284 112.24 27.9484 111.887 27.4151 111.18C26.8951 110.473 26.6351 109.547 26.6351 108.4V104.38H25.2751V102.2L26.7951 102.08L27.1351 99.44H29.5751V102.08H31.9551V104.38H29.5751V108.36C29.5751 108.92 29.6884 109.327 29.9151 109.58C30.1551 109.82 30.4684 109.94 30.8551 109.94C31.0151 109.94 31.1751 109.92 31.3351 109.88C31.5084 109.84 31.6617 109.793 31.7951 109.74L32.2551 111.88C32.0017 111.96 31.6884 112.04 31.3151 112.12C30.9551 112.2 30.5351 112.24 30.0551 112.24ZM34.0313 112V97.98H36.9713V101.42L36.8313 103.2C37.2047 102.867 37.638 102.56 38.1313 102.28C38.638 101.987 39.2247 101.84 39.8913 101.84C40.9713 101.84 41.7513 102.2 42.2313 102.92C42.7247 103.627 42.9713 104.6 42.9713 105.84V112H40.0313V106.22C40.0313 105.5 39.9313 105.007 39.7313 104.74C39.5447 104.473 39.238 104.34 38.8113 104.34C38.438 104.34 38.118 104.427 37.8513 104.6C37.5847 104.76 37.2913 104.993 36.9713 105.3V112H34.0313ZM53.961 112.24C53.1077 112.24 52.2543 112.08 51.401 111.76C50.561 111.44 49.8077 110.973 49.141 110.36L50.821 108.34C51.2877 108.74 51.8077 109.067 52.381 109.32C52.9543 109.573 53.5077 109.7 54.041 109.7C54.6543 109.7 55.1077 109.587 55.401 109.36C55.7077 109.133 55.861 108.827 55.861 108.44C55.861 108.027 55.6877 107.727 55.341 107.54C55.0077 107.34 54.5543 107.12 53.981 106.88L52.281 106.16C51.841 105.973 51.421 105.727 51.021 105.42C50.621 105.1 50.2943 104.707 50.041 104.24C49.7877 103.773 49.661 103.227 49.661 102.6C49.661 101.88 49.8543 101.227 50.241 100.64C50.641 100.053 51.1877 99.5867 51.881 99.24C52.5877 98.8933 53.3943 98.72 54.301 98.72C55.0477 98.72 55.7943 98.8667 56.541 99.16C57.2877 99.4533 57.941 99.88 58.501 100.44L57.001 102.3C56.5743 101.967 56.1477 101.713 55.721 101.54C55.2943 101.353 54.821 101.26 54.301 101.26C53.7943 101.26 53.3877 101.367 53.081 101.58C52.7877 101.78 52.641 102.067 52.641 102.44C52.641 102.84 52.8277 103.14 53.201 103.34C53.5877 103.54 54.061 103.753 54.621 103.98L56.301 104.66C57.0877 104.98 57.7143 105.42 58.181 105.98C58.6477 106.54 58.881 107.28 58.881 108.2C58.881 108.92 58.6877 109.587 58.301 110.2C57.9143 110.813 57.3543 111.307 56.621 111.68C55.8877 112.053 55.001 112.24 53.961 112.24ZM65.3143 112.24C64.3943 112.24 63.561 112.04 62.8143 111.64C62.081 111.227 61.4943 110.633 61.0543 109.86C60.6276 109.073 60.4143 108.133 60.4143 107.04C60.4143 105.933 60.6543 104.993 61.1343 104.22C61.6143 103.447 62.2476 102.86 63.0343 102.46C63.821 102.047 64.6676 101.84 65.5743 101.84C66.1876 101.84 66.7276 101.94 67.1943 102.14C67.6743 102.34 68.101 102.593 68.4743 102.9L67.0943 104.8C66.6276 104.413 66.181 104.22 65.7543 104.22C65.0476 104.22 64.481 104.473 64.0543 104.98C63.641 105.487 63.4343 106.173 63.4343 107.04C63.4343 107.893 63.641 108.58 64.0543 109.1C64.481 109.607 65.0143 109.86 65.6543 109.86C65.9743 109.86 66.2876 109.793 66.5943 109.66C66.901 109.513 67.181 109.34 67.4343 109.14L68.5943 111.06C68.101 111.487 67.5676 111.793 66.9943 111.98C66.421 112.153 65.861 112.24 65.3143 112.24ZM70.4702 112V102.08H72.8702L73.0702 103.82H73.1502C73.5102 103.153 73.9436 102.66 74.4502 102.34C74.9569 102.007 75.4636 101.84 75.9702 101.84C76.2502 101.84 76.4836 101.86 76.6702 101.9C76.8569 101.927 77.0169 101.973 77.1502 102.04L76.6702 104.58C76.4969 104.527 76.3236 104.487 76.1502 104.46C75.9902 104.433 75.8036 104.42 75.5902 104.42C75.2169 104.42 74.8236 104.56 74.4102 104.84C74.0102 105.107 73.6769 105.573 73.4102 106.24V112H70.4702ZM82.8237 112.24C81.877 112.24 81.0237 112.033 80.2637 111.62C79.5037 111.207 78.9037 110.613 78.4637 109.84C78.0237 109.067 77.8037 108.133 77.8037 107.04C77.8037 105.96 78.0237 105.033 78.4637 104.26C78.917 103.487 79.5037 102.893 80.2237 102.48C80.9437 102.053 81.697 101.84 82.4837 101.84C83.4303 101.84 84.2103 102.053 84.8237 102.48C85.4503 102.893 85.917 103.46 86.2237 104.18C86.5437 104.887 86.7037 105.693 86.7037 106.6C86.7037 106.853 86.6903 107.107 86.6637 107.36C86.637 107.6 86.6103 107.78 86.5837 107.9H80.6437C80.777 108.62 81.077 109.153 81.5437 109.5C82.0103 109.833 82.5703 110 83.2237 110C83.9303 110 84.6437 109.78 85.3637 109.34L86.3437 111.12C85.837 111.467 85.2703 111.74 84.6437 111.94C84.017 112.14 83.4103 112.24 82.8237 112.24ZM80.6237 105.96H84.2037C84.2037 105.413 84.0703 104.967 83.8037 104.62C83.5503 104.26 83.1303 104.08 82.5437 104.08C82.0903 104.08 81.6837 104.24 81.3237 104.56C80.9637 104.867 80.7303 105.333 80.6237 105.96ZM93.3152 112.24C92.3686 112.24 91.5152 112.033 90.7552 111.62C89.9952 111.207 89.3952 110.613 88.9552 109.84C88.5152 109.067 88.2952 108.133 88.2952 107.04C88.2952 105.96 88.5152 105.033 88.9552 104.26C89.4086 103.487 89.9952 102.893 90.7152 102.48C91.4352 102.053 92.1886 101.84 92.9752 101.84C93.9219 101.84 94.7019 102.053 95.3152 102.48C95.9419 102.893 96.4086 103.46 96.7152 104.18C97.0352 104.887 97.1952 105.693 97.1952 106.6C97.1952 106.853 97.1819 107.107 97.1552 107.36C97.1286 107.6 97.1019 107.78 97.0752 107.9H91.1352C91.2686 108.62 91.5686 109.153 92.0352 109.5C92.5019 109.833 93.0619 110 93.7152 110C94.4219 110 95.1352 109.78 95.8552 109.34L96.8352 111.12C96.3286 111.467 95.7619 111.74 95.1352 111.94C94.5086 112.14 93.9019 112.24 93.3152 112.24ZM91.1152 105.96H94.6952C94.6952 105.413 94.5619 104.967 94.2952 104.62C94.0419 104.26 93.6219 104.08 93.0352 104.08C92.5819 104.08 92.1752 104.24 91.8152 104.56C91.4552 104.867 91.2219 105.333 91.1152 105.96ZM99.3668 112V102.08H101.767L101.967 103.34H102.047C102.473 102.94 102.94 102.593 103.447 102.3C103.967 101.993 104.56 101.84 105.227 101.84C106.307 101.84 107.087 102.2 107.567 102.92C108.06 103.627 108.307 104.6 108.307 105.84V112H105.367V106.22C105.367 105.5 105.267 105.007 105.067 104.74C104.88 104.473 104.573 104.34 104.147 104.34C103.773 104.34 103.453 104.427 103.187 104.6C102.92 104.76 102.627 104.993 102.307 105.3V112H99.3668ZM113.872 112.24C113.219 112.24 112.545 112.113 111.852 111.86C111.172 111.607 110.579 111.273 110.072 110.86L111.392 109.02C111.845 109.353 112.279 109.613 112.692 109.8C113.119 109.973 113.539 110.06 113.952 110.06C114.392 110.06 114.712 109.987 114.912 109.84C115.112 109.68 115.212 109.473 115.212 109.22C115.212 108.993 115.112 108.807 114.912 108.66C114.725 108.513 114.479 108.38 114.172 108.26C113.865 108.127 113.539 107.993 113.192 107.86C112.792 107.7 112.392 107.5 111.992 107.26C111.605 107.02 111.279 106.713 111.012 106.34C110.745 105.953 110.612 105.487 110.612 104.94C110.612 104.02 110.959 103.273 111.652 102.7C112.359 102.127 113.279 101.84 114.412 101.84C115.172 101.84 115.839 101.973 116.412 102.24C116.999 102.493 117.499 102.78 117.912 103.1L116.592 104.86C116.245 104.593 115.899 104.387 115.552 104.24C115.205 104.093 114.859 104.02 114.512 104.02C113.752 104.02 113.372 104.28 113.372 104.8C113.372 105.12 113.559 105.367 113.932 105.54C114.319 105.7 114.765 105.873 115.272 106.06C115.699 106.207 116.112 106.4 116.512 106.64C116.925 106.867 117.265 107.173 117.532 107.56C117.812 107.933 117.952 108.427 117.952 109.04C117.952 109.933 117.605 110.693 116.912 111.32C116.219 111.933 115.205 112.24 113.872 112.24ZM119.959 112V97.98H122.899V101.42L122.759 103.2C123.133 102.867 123.566 102.56 124.059 102.28C124.566 101.987 125.153 101.84 125.819 101.84C126.899 101.84 127.679 102.2 128.159 102.92C128.653 103.627 128.899 104.6 128.899 105.84V112H125.959V106.22C125.959 105.5 125.859 105.007 125.659 104.74C125.473 104.473 125.166 104.34 124.739 104.34C124.366 104.34 124.046 104.427 123.779 104.6C123.513 104.76 123.219 104.993 122.899 105.3V112H119.959ZM135.785 112.24C134.945 112.24 134.152 112.04 133.405 111.64C132.672 111.227 132.078 110.633 131.625 109.86C131.172 109.073 130.945 108.133 130.945 107.04C130.945 105.933 131.172 104.993 131.625 104.22C132.078 103.447 132.672 102.86 133.405 102.46C134.152 102.047 134.945 101.84 135.785 101.84C136.625 101.84 137.412 102.047 138.145 102.46C138.878 102.86 139.472 103.447 139.925 104.22C140.378 104.993 140.605 105.933 140.605 107.04C140.605 108.133 140.378 109.073 139.925 109.86C139.472 110.633 138.878 111.227 138.145 111.64C137.412 112.04 136.625 112.24 135.785 112.24ZM135.785 109.86C136.385 109.86 136.838 109.607 137.145 109.1C137.452 108.58 137.605 107.893 137.605 107.04C137.605 106.173 137.452 105.487 137.145 104.98C136.838 104.473 136.385 104.22 135.785 104.22C135.172 104.22 134.712 104.473 134.405 104.98C134.112 105.487 133.965 106.173 133.965 107.04C133.965 107.893 134.112 108.58 134.405 109.1C134.712 109.607 135.172 109.86 135.785 109.86ZM146.051 112.24C144.825 112.24 143.945 111.887 143.411 111.18C142.891 110.473 142.631 109.547 142.631 108.4V104.38H141.271V102.2L142.791 102.08L143.131 99.44H145.571V102.08H147.951V104.38H145.571V108.36C145.571 108.92 145.685 109.327 145.911 109.58C146.151 109.82 146.465 109.94 146.851 109.94C147.011 109.94 147.171 109.92 147.331 109.88C147.505 109.84 147.658 109.793 147.791 109.74L148.251 111.88C147.998 111.96 147.685 112.04 147.311 112.12C146.951 112.2 146.531 112.24 146.051 112.24ZM152.752 112.24C152.099 112.24 151.426 112.113 150.732 111.86C150.052 111.607 149.459 111.273 148.952 110.86L150.272 109.02C150.726 109.353 151.159 109.613 151.572 109.8C151.999 109.973 152.419 110.06 152.832 110.06C153.272 110.06 153.592 109.987 153.792 109.84C153.992 109.68 154.092 109.473 154.092 109.22C154.092 108.993 153.992 108.807 153.792 108.66C153.606 108.513 153.359 108.38 153.052 108.26C152.746 108.127 152.419 107.993 152.072 107.86C151.672 107.7 151.272 107.5 150.872 107.26C150.486 107.02 150.159 106.713 149.892 106.34C149.626 105.953 149.492 105.487 149.492 104.94C149.492 104.02 149.839 103.273 150.532 102.7C151.239 102.127 152.159 101.84 153.292 101.84C154.052 101.84 154.719 101.973 155.292 102.24C155.879 102.493 156.379 102.78 156.792 103.1L155.472 104.86C155.126 104.593 154.779 104.387 154.432 104.24C154.086 104.093 153.739 104.02 153.392 104.02C152.632 104.02 152.252 104.28 152.252 104.8C152.252 105.12 152.439 105.367 152.812 105.54C153.199 105.7 153.646 105.873 154.152 106.06C154.579 106.207 154.992 106.4 155.392 106.64C155.806 106.867 156.146 107.173 156.412 107.56C156.692 107.933 156.832 108.427 156.832 109.04C156.832 109.933 156.486 110.693 155.792 111.32C155.099 111.933 154.086 112.24 152.752 112.24Z" fill="white"/>
<path d="M80.5602 15.9372V27.5157H91.5598" stroke="#1ED0C6" stroke-width="2.34783" stroke-linecap="round" stroke-linejoin="round"/>
<path d="M81.0029 45.7854C91.3772 45.7854 99.7873 37.3752 99.7873 27.001C99.7873 16.6266 91.3772 8.21655 81.0029 8.21655C70.6286 8.21655 62.2185 16.6266 62.2185 27.001C62.2185 37.3752 70.6286 45.7854 81.0029 45.7854Z" stroke="#1ED0C6" stroke-width="2.34783" stroke-linecap="round" stroke-linejoin="round"/>
</svg>
